<svg viewBox="0 0 640 940" xmlns="http://www.w3.org/2000/svg" width="640" height="940" role="img" aria-label="The Leader (male) — the marketing hero, hands on hips">
  <title>The Leader — the marketing hero, male variant (flat brand skin)</title>
  <path d="M290,468 L328,468 L324,864 L296,864 Z" fill="#16151f"/>
  <path d="M332,468 L370,468 L364,864 L336,864 Z" fill="#16151f"/>
  <path d="M311,486 L310,856" stroke="#221f2e" stroke-width="2" fill="none"/>
  <path d="M350,486 L351,856" stroke="#221f2e" stroke-width="2" fill="none"/>
  <rect x="284" y="860" width="44" height="26" rx="13" fill="#FF8431"/>
  <rect x="330" y="860" width="44" height="26" rx="13" fill="#FF8431"/>
  <path d="M298,300 L342,300 L346,458 L294,458 Z" fill="#A7A7FC"/>
  <rect x="290" y="448" width="60" height="15" rx="3.5" fill="#FF8431"/>
  <rect x="314" y="448" width="12" height="15" rx="2" fill="#C75A12"/>
  <path d="M320,300 C300,300 284,305 272,314 C252,326 232,332 226,348 C220,392 224,448 256,462 C248,482 248,568 250,706 L300,706 L304,456 L312,338 Z" fill="#171624"/>
  <path d="M320,300 C340,300 356,305 368,314 C388,326 408,332 414,348 C420,392 416,448 384,462 C392,482 392,568 390,706 L340,706 L336,456 L328,338 Z" fill="#1b1928"/>
  <path d="M320,302 L298,320 L308,372 L320,356 Z" fill="#221f30"/>
  <path d="M320,302 L342,320 L332,372 L320,356 Z" fill="#201d2b"/>
  <path d="M250,320 C214,342 194,390 198,428 C201,456 240,468 284,464 L290,446 C252,444 228,430 224,402 C221,374 236,346 254,332 Z" fill="#171624"/>
  <ellipse cx="286" cy="458" rx="16" ry="12" fill="#C88A5A"/>
  <path d="M390,320 C426,342 446,390 442,428 C439,456 400,468 356,464 L350,446 C388,444 412,430 416,402 C419,374 404,346 386,332 Z" fill="#1b1928"/>
  <ellipse cx="354" cy="458" rx="16" ry="12" fill="#C88A5A"/>
  <path d="M304,272 L336,272 L336,306 L304,306 Z" fill="#A56E42"/>
  <path d="M272,198 C272,174 294,166 320,166 C346,166 368,174 368,198 C368,246 348,284 320,284 C292,284 272,246 272,198 Z" fill="#C88A5A"/>
  <path d="M282,248 C290,272 306,284 320,284 C334,284 350,272 358,248 C346,260 332,264 320,264 C308,264 294,260 282,248 Z" fill="#9a6238" opacity="0.42"/>
  <path d="M270,192 C270,150 300,142 320,142 C340,142 370,150 370,192 C356,176 336,182 320,182 C304,182 284,176 270,192 Z" fill="#15131d"/>
</svg>
