<svg width="1286" height="279" viewBox="0 0 1286 279" fill="none" xmlns="http://www.w3.org/2000/svg">
<path d="M0 274.464L108.088 32.2563H163.038L271.126 274.464H227.023L199.19 211.564H71.2108L43.3773 274.464H0ZM86.7545 176.496H183.638L150.748 102.749L136.648 68.4081H133.753L119.652 102.749L86.7545 176.496Z" fill="white"></path>
<path d="M289.195 274.464V32.2563H328.242V274.464H289.195Z" fill="white"></path>
<path d="M378.131 274.464V127.329H351.016V94.7982H378.49C382.829 55.3925 412.832 32.2563 463.801 32.2563H481.514V61.1745H457.661C429.101 61.1745 414.275 68.7751 416.444 94.7982H481.514V127.329H417.17V274.464H378.131Z" fill="white"></path>
<path d="M503.18 274.467V94.8012H538.964V143.243H541.493C546.916 114.316 566.439 91.1885 603.317 91.1885C644.166 91.1885 661.879 120.465 661.879 154.448V177.943H623.199V162.04C623.199 136.368 612.353 124.445 585.596 124.445C554.875 124.445 542.218 141.432 542.218 173.604V274.467H503.18Z" fill="white"></path>
<path d="M679.258 184.81C679.258 128.784 717.579 91.1885 776.141 91.1885C831.816 91.1885 869.77 121.917 869.77 176.499C869.77 183.007 869.411 188.072 868.327 193.487H715.768C717.22 228.195 734.207 246.626 775.782 246.626C813.377 246.626 828.921 234.344 828.921 213.01V210.123H867.96V213.369C867.96 251.698 830.365 278.088 776.867 278.088C717.938 278.088 679.258 244.823 679.258 184.81ZM716.135 171.802H832.901V171.076C832.901 137.82 813.736 121.917 775.415 121.917C735.651 121.917 718.305 139.63 716.135 171.802Z" fill="white"></path>
<path d="M889.992 184.807C889.992 128.781 921.08 91.1855 975.67 91.1855C1018.32 91.1855 1042.54 113.237 1049.78 143.599H1051.95V32.2563H1090.98V274.464H1055.2V222.769H1052.67C1045.08 258.562 1018.69 278.085 978.198 278.085C921.439 278.085 889.992 240.123 889.992 184.807ZM990.129 242.292C1028.45 242.292 1051.95 224.212 1051.95 186.617V183.73C1051.95 145.409 1029.54 126.611 989.404 126.611C951.808 126.611 929.398 141.429 929.398 184.807C929.398 227.833 951.449 242.292 990.129 242.292Z" fill="white"></path>
<path d="M1139.83 105.778C1139.83 91.4457 1150.48 82.5289 1171.21 80.4001L1212.87 76.1331V72.4544C1212.87 59.8588 1207.25 56.3761 1191.75 56.3761C1177.03 56.3761 1171.02 60.251 1171.02 71.2966V72.0622H1141.76V71.4833C1141.76 47.4594 1161.91 30.8022 1193.88 30.8022C1226.23 30.8022 1241.54 47.4594 1241.54 72.8465V129.802H1214.42V107.524H1212.87C1208.41 122.631 1194.85 131.744 1173.34 131.744C1152.42 131.744 1139.83 122.052 1139.83 105.778ZM1181.68 111.203C1201.43 111.203 1212.09 106.553 1212.87 92.7996L1179.16 96.6744C1172.18 97.2533 1169.08 99.1954 1169.08 103.845C1169.08 109.074 1173.15 111.203 1181.68 111.203Z" fill="white"></path>
<path d="M1256.27 22.8568V0H1285.33V22.8568H1256.27ZM1256.27 129.802V32.7353H1285.33V129.802H1256.27Z" fill="white"></path>
</svg>