<svg width="1817" height="438" viewBox="0 0 1817 438" fill="none" xmlns="http://www.w3.org/2000/svg">
<path d="M288.241 0H145.654C65.1568 0 0 65.2299 0 145.654V291.747C0 372.244 65.1568 437.475 145.654 437.475H155.151C232.142 437.475 294.523 375.093 294.523 298.103C294.523 375.093 356.904 437.475 433.895 437.475V145.654C433.895 65.2299 368.665 0 288.241 0ZM294.523 296.35H143.828V145.581H294.523V296.35Z" fill="url(#paint0_linear_1537_317)"></path>
<path d="M531.531 339.851L639.62 97.6426H694.569L802.657 339.851H758.554L730.721 276.95H602.742L574.909 339.851H531.531ZM618.286 241.883H715.169L682.279 168.136L668.179 133.794H665.284L651.184 168.136L618.286 241.883Z" fill="white"></path>
<path d="M820.727 339.851V97.6426H859.773V339.851H820.727Z" fill="white"></path>
<path d="M909.663 339.851V192.715H882.547V160.184H910.022C914.36 120.779 944.363 97.6426 995.333 97.6426H1013.05V126.561H989.192C960.632 126.561 945.806 134.161 947.976 160.184H1013.05V192.715H948.701V339.851H909.663Z" fill="white"></path>
<path d="M1034.71 339.854V160.187H1070.5V208.629H1073.02C1078.45 179.703 1097.97 156.575 1134.85 156.575C1175.7 156.575 1193.41 185.852 1193.41 219.834V243.329H1154.73V227.427C1154.73 201.754 1143.88 189.831 1117.13 189.831C1086.41 189.831 1073.75 206.819 1073.75 238.991V339.854H1034.71Z" fill="white"></path>
<path d="M1210.79 250.196C1210.79 194.17 1249.11 156.575 1307.67 156.575C1363.35 156.575 1401.3 187.303 1401.3 241.886C1401.3 248.394 1400.94 253.458 1399.86 258.873H1247.3C1248.75 293.581 1265.74 312.012 1307.31 312.012C1344.91 312.012 1360.45 299.73 1360.45 278.396V275.509H1399.49V278.755C1399.49 317.084 1361.9 343.474 1308.4 343.474C1249.47 343.474 1210.79 310.21 1210.79 250.196ZM1247.67 237.188H1364.43V236.463C1364.43 203.206 1345.27 187.303 1306.95 187.303C1267.18 187.303 1249.84 205.016 1247.67 237.188Z" fill="white"></path>
<path d="M1421.52 250.193C1421.52 194.167 1452.61 156.572 1507.2 156.572C1549.85 156.572 1574.07 178.623 1581.31 208.985H1583.48V97.6426H1622.52V339.851H1586.73V288.155H1584.2C1576.61 323.948 1550.22 343.471 1509.73 343.471C1452.97 343.471 1421.52 305.509 1421.52 250.193ZM1521.66 307.678C1559.98 307.678 1583.48 289.598 1583.48 252.003V249.116C1583.48 210.795 1561.07 191.998 1520.93 191.998C1483.34 191.998 1460.93 206.816 1460.93 250.193C1460.93 293.219 1482.98 307.678 1521.66 307.678Z" fill="white"></path>
<path d="M1671.36 171.164C1671.36 156.832 1682.01 147.915 1702.74 145.786L1744.4 141.519V137.841C1744.4 125.245 1738.78 121.762 1723.28 121.762C1708.56 121.762 1702.55 125.637 1702.55 136.683V137.448H1673.29V136.87C1673.29 112.846 1693.44 96.1885 1725.41 96.1885C1757.76 96.1885 1773.07 112.846 1773.07 138.233V195.188H1745.95V172.91H1744.4C1739.94 188.017 1726.38 197.13 1704.87 197.13C1683.95 197.13 1671.36 187.438 1671.36 171.164ZM1713.21 176.589C1732.96 176.589 1743.62 171.939 1744.4 158.186L1710.69 162.061C1703.71 162.64 1700.61 164.582 1700.61 169.231C1700.61 174.46 1704.68 176.589 1713.21 176.589Z" fill="white"></path>
<path d="M1787.8 88.2431V65.3862H1816.86V88.2431H1787.8ZM1787.8 195.188V98.1216H1816.86V195.188H1787.8Z" fill="white"></path>
<defs>
<linearGradient id="paint0_linear_1537_317" x1="396.762" y1="35.1029" x2="-21.0144" y2="275.449" gradientUnits="userSpaceOnUse">
<stop stop-color="#A7A7FC"></stop>
<stop offset="0.709771" stop-color="#FF8431"></stop>
</linearGradient>
</defs>
</svg>