<svg xmlns="http://www.w3.org/2000/svg" width="14.856" height="13.656" viewBox="0 0 14.856 13.656" fill="none">
  <path d="M 7.429 1.397 C 4.979 1.397 2.993 3.382 2.993 5.832 L 2.993 6.89 C 2.993 7.962 2.719 9.016 2.196 9.953 L 1.488 11.221 C 1.228 11.687 1.565 12.26 2.098 12.26 L 12.758 12.26 C 13.291 12.26 13.628 11.686 13.368 11.221 L 12.662 9.956 C 12.139 9.02 11.865 7.965 11.865 6.893 L 13.262 6.893 C 13.262 7.727 13.475 8.547 13.881 9.275 L 14.587 10.54 C 15.367 11.937 14.357 13.656 12.758 13.656 L 2.098 13.656 C 0.499 13.656 -0.511 11.937 0.269 10.541 L 0.977 9.272 C 1.383 8.544 1.597 7.724 1.597 6.89 L 1.597 5.832 C 1.597 2.611 4.208 0 7.429 0 C 8.52 0 9.543 0.3 10.418 0.823 L 9.702 2.022 C 9.037 1.625 8.261 1.397 7.429 1.397 Z" fill="currentColor" fill-rule="evenodd"></path>
</svg>