<svg xmlns="http://www.w3.org/2000/svg" width="12.077" height="12.131" viewBox="0 0 12.077 12.131" fill="none">
  <path d="M 11.228 9.905 C 11.026 10.698 10.306 11.285 9.451 11.285 L 9.451 12.131 C 10.703 12.131 11.753 11.273 12.048 10.114 L 11.228 9.905 Z M 4.457 9.905 C 4.255 10.698 3.536 11.285 2.68 11.285 L 2.68 12.131 C 3.932 12.131 4.982 11.273 5.277 10.114 L 4.457 9.905 Z M 0 9.451 C 0 10.931 1.2 12.131 2.68 12.131 L 2.68 11.285 C 1.667 11.285 0.846 10.464 0.846 9.451 L 0 9.451 Z M 9.451 11.285 L 2.68 11.285 L 2.68 12.131 L 9.451 12.131 L 9.451 11.285 Z M 0.846 9.451 L 0.846 2.116 L 0 2.116 L 0 9.451 L 0.846 9.451 Z M 2.116 0.846 L 7.758 0.846 L 7.758 0 L 2.116 0 L 2.116 0.846 Z M 5.501 9.874 L 9.451 9.874 L 9.451 9.028 L 5.501 9.028 L 5.501 9.874 Z M 9.451 9.874 L 11.144 9.874 L 11.144 9.028 L 9.451 9.028 L 9.451 9.874 Z M 9.028 2.116 L 9.028 9.451 L 9.874 9.451 L 9.874 2.116 L 9.028 2.116 Z M 7.758 0.846 C 8.459 0.846 9.028 1.415 9.028 2.116 L 9.874 2.116 C 9.874 0.947 8.927 0 7.758 0 L 7.758 0.846 Z M 5.277 10.114 C 5.297 10.036 5.338 9.97 5.384 9.927 C 5.428 9.887 5.468 9.874 5.501 9.874 L 5.501 9.028 C 4.938 9.028 4.566 9.479 4.457 9.905 L 5.277 10.114 Z M 0.846 2.116 C 0.846 1.415 1.415 0.846 2.116 0.846 L 2.116 0 C 0.947 0 0 0.947 0 2.116 L 0.846 2.116 Z M 12.048 10.114 C 12.212 9.47 11.65 9.028 11.144 9.028 L 11.144 9.874 C 11.185 9.874 11.214 9.892 11.226 9.904 C 11.231 9.91 11.23 9.911 11.229 9.908 C 11.228 9.903 11.229 9.901 11.228 9.905 L 12.048 10.114 Z M 7.59 4.908 C 7.59 6.019 6.689 6.92 5.578 6.92 L 5.578 7.699 C 7.12 7.699 8.37 6.449 8.37 4.908 L 7.59 4.908 Z M 5.578 6.92 C 4.467 6.92 3.566 6.019 3.566 4.908 L 2.786 4.908 C 2.786 6.449 4.036 7.699 5.578 7.699 L 5.578 6.92 Z M 3.566 4.908 C 3.566 3.796 4.467 2.895 5.578 2.895 L 5.578 2.116 C 4.036 2.116 2.786 3.366 2.786 4.908 L 3.566 4.908 Z M 5.578 2.895 C 6.689 2.895 7.59 3.796 7.59 4.908 L 8.37 4.908 C 8.37 3.366 7.12 2.116 5.578 2.116 L 5.578 2.895 Z" fill="currentColor" fill-rule="nonzero"></path>
</svg>