<svg xmlns="http://www.w3.org/2000/svg" width="12.980" height="17.257" viewBox="0 0 12.980 17.257" fill="none">
  <path d="M 9.059 0 L 3.921 0 C 3.746 0 3.578 0.07 3.455 0.193 C 3.331 0.317 3.262 0.485 3.261 0.659 L 3.261 1.415 L 1.429 1.415 C 1.05 1.416 0.687 1.566 0.419 1.834 C 0.151 2.102 0 2.465 0 2.844 L 0 15.828 C 0 16.207 0.151 16.57 0.419 16.838 C 0.687 17.106 1.05 17.256 1.429 17.257 L 11.551 17.257 C 11.93 17.256 12.293 17.106 12.561 16.838 C 12.829 16.57 12.979 16.207 12.98 15.828 L 12.98 2.844 C 12.979 2.465 12.829 2.102 12.561 1.834 C 12.293 1.566 11.93 1.416 11.551 1.415 L 9.718 1.415 L 9.718 0.659 C 9.718 0.485 9.649 0.317 9.525 0.193 C 9.401 0.07 9.234 0 9.059 0 Z M 4.273 1.011 L 8.707 1.011 L 8.707 7.72 L 6.787 5.949 C 6.692 5.862 6.568 5.814 6.439 5.815 C 6.311 5.816 6.188 5.866 6.095 5.955 L 4.273 7.693 L 4.273 1.011 Z M 11.551 2.426 C 11.662 2.427 11.768 2.471 11.846 2.549 C 11.925 2.627 11.969 2.733 11.969 2.844 L 11.969 15.828 C 11.969 15.939 11.925 16.045 11.846 16.123 C 11.768 16.201 11.662 16.245 11.551 16.245 L 1.429 16.245 C 1.318 16.245 1.212 16.201 1.134 16.123 C 1.055 16.045 1.011 15.939 1.011 15.828 L 1.011 2.844 C 1.011 2.733 1.055 2.627 1.134 2.549 C 1.212 2.471 1.318 2.427 1.429 2.426 L 3.261 2.426 L 3.261 8.874 C 3.261 8.973 3.29 9.07 3.345 9.153 C 3.399 9.235 3.477 9.3 3.568 9.339 C 3.659 9.378 3.759 9.389 3.857 9.372 C 3.954 9.354 4.044 9.308 4.116 9.24 L 6.449 7.014 L 8.87 9.246 C 8.942 9.313 9.032 9.357 9.129 9.373 C 9.226 9.389 9.326 9.377 9.416 9.338 C 9.506 9.298 9.582 9.233 9.636 9.151 C 9.69 9.069 9.719 8.973 9.718 8.874 L 9.718 2.426 L 11.551 2.426 Z" fill="currentColor" fill-rule="nonzero"></path>
</svg>