<svg xmlns="http://www.w3.org/2000/svg" width="15.160" height="12.633" viewBox="0 0 15.160 12.633" fill="none">
  <path d="M 8.164 11.008 C 8.392 11.075 8.624 11.127 8.862 11.164 C 9.135 11.206 9.417 11.228 9.707 11.228 C 10.851 11.228 11.932 10.871 12.825 10.246 C 13.672 9.653 14.351 8.818 14.752 7.817 L 9.647 5.959 C 9.574 5.932 9.53 5.865 9.53 5.793 L 9.53 0.36 C 8.405 0.396 7.366 0.775 6.514 1.395 C 5.656 2.018 4.989 2.887 4.612 3.896 C 5.495 3.928 6.286 4.038 6.889 4.198 C 7.678 4.408 8.166 4.726 8.166 5.105 L 8.166 11.006 L 8.164 11.008 Z M 7.809 5.631 L 7.809 7.209 C 7.809 7.406 7.423 7.607 6.798 7.774 C 6.106 7.959 5.146 8.072 4.083 8.072 C 3.02 8.072 2.06 7.957 1.368 7.774 C 0.743 7.607 0.357 7.406 0.357 7.209 L 0.357 5.631 C 0.578 5.781 0.891 5.911 1.278 6.013 C 1.999 6.205 2.991 6.325 4.085 6.325 C 5.178 6.325 6.17 6.205 6.891 6.013 C 7.278 5.911 7.592 5.781 7.812 5.631 L 7.809 5.631 Z M 0 5.105 C 0 4.726 0.488 4.408 1.277 4.198 C 1.998 4.006 2.99 3.886 4.083 3.886 C 4.135 3.886 4.187 3.886 4.24 3.886 C 4.632 2.761 5.361 1.794 6.306 1.105 C 7.261 0.409 8.437 0 9.709 0 C 9.807 0 9.886 0.079 9.886 0.177 L 9.886 5.666 L 15.043 7.543 C 15.136 7.576 15.183 7.678 15.15 7.77 C 14.733 8.914 13.982 9.866 13.029 10.533 C 12.077 11.2 10.925 11.58 9.709 11.58 C 9.406 11.58 9.106 11.557 8.809 11.51 C 8.59 11.476 8.377 11.429 8.166 11.371 L 8.166 11.414 C 8.166 11.793 7.678 12.111 6.889 12.321 C 6.168 12.513 5.176 12.633 4.083 12.633 C 2.99 12.633 2.016 12.517 1.299 12.333 C 0.497 12.129 0.002 11.818 0.002 11.459 L 0.002 5.102 L 0 5.105 Z M 0.355 7.736 C 0.576 7.886 0.889 8.016 1.277 8.119 C 1.998 8.311 2.99 8.43 4.083 8.43 C 5.176 8.43 6.168 8.311 6.889 8.119 C 7.277 8.016 7.59 7.886 7.811 7.736 L 7.811 9.315 C 7.811 9.512 7.425 9.712 6.8 9.879 C 6.108 10.064 5.148 10.177 4.085 10.177 C 3.022 10.177 2.062 10.063 1.369 9.879 C 0.745 9.712 0.359 9.512 0.359 9.315 L 0.359 7.736 L 0.355 7.736 Z M 0.355 9.84 C 0.576 9.99 0.889 10.12 1.277 10.223 C 1.998 10.415 2.99 10.534 4.083 10.534 C 5.176 10.534 6.168 10.415 6.889 10.223 C 7.277 10.12 7.59 9.99 7.811 9.84 L 7.811 11.419 C 7.811 11.616 7.425 11.816 6.8 11.983 C 6.108 12.168 5.148 12.281 4.085 12.281 C 3.022 12.281 2.079 12.168 1.388 11.993 C 0.753 11.831 0.359 11.639 0.359 11.464 L 0.359 9.84 L 0.355 9.84 Z M 6.798 4.541 C 7.423 4.708 7.809 4.908 7.809 5.105 C 7.809 5.302 7.423 5.503 6.798 5.67 C 6.106 5.855 5.146 5.968 4.083 5.968 C 3.02 5.968 2.06 5.853 1.368 5.67 C 0.743 5.503 0.357 5.302 0.357 5.105 C 0.357 4.908 0.743 4.708 1.368 4.541 C 2.06 4.356 3.02 4.243 4.083 4.243 C 5.146 4.243 6.106 4.358 6.798 4.541 Z M 10.516 5.294 L 10.516 1.225 C 11.604 1.27 12.586 1.73 13.307 2.451 C 14.066 3.21 14.536 4.26 14.536 5.419 C 14.536 5.665 14.514 5.909 14.472 6.148 C 14.44 6.332 14.397 6.51 14.341 6.687 L 10.517 5.296 L 10.516 5.294 Z M 14.388 7.081 L 10.29 5.589 C 10.216 5.569 10.16 5.5 10.16 5.417 L 10.16 1.043 C 10.16 0.945 10.239 0.866 10.337 0.866 C 11.594 0.866 12.732 1.376 13.556 2.2 C 14.38 3.024 14.89 4.162 14.89 5.419 C 14.89 5.683 14.867 5.948 14.821 6.209 C 14.776 6.468 14.707 6.724 14.616 6.975 C 14.582 7.068 14.481 7.115 14.388 7.081 Z" fill="currentColor" fill-rule="evenodd"></path>
</svg>