<svg xmlns="http://www.w3.org/2000/svg" width="15.193" height="14.021" viewBox="0 0 15.193 14.021" fill="none">
  <path d="M 15.121 11.286 C 15.083 11.195 15.03 11.111 14.954 11.035 L 13.267 9.348 C 12.971 9.052 12.492 9.052 12.196 9.348 C 11.899 9.645 11.899 10.123 12.196 10.42 L 12.591 10.815 L 10.782 10.815 C 10.539 10.815 10.304 10.693 10.167 10.496 L 7.682 7.008 L 10.167 3.528 C 10.311 3.33 10.539 3.209 10.782 3.209 L 12.591 3.209 L 12.196 3.604 C 11.899 3.9 11.899 4.379 12.196 4.675 C 12.348 4.827 12.538 4.895 12.735 4.895 C 12.933 4.895 13.123 4.819 13.275 4.675 L 14.962 2.988 C 15.03 2.92 15.091 2.836 15.129 2.737 C 15.205 2.555 15.205 2.342 15.129 2.16 C 15.091 2.069 15.038 1.985 14.962 1.909 L 13.275 0.222 C 12.978 -0.074 12.5 -0.074 12.203 0.222 C 11.907 0.519 11.907 0.997 12.203 1.294 L 12.599 1.689 L 10.79 1.689 C 10.053 1.689 9.362 2.046 8.936 2.639 L 6.755 5.693 L 4.567 2.623 C 4.141 2.023 3.45 1.666 2.713 1.666 L 0.76 1.666 C 0.342 1.666 0 2.008 0 2.426 C 0 2.844 0.342 3.186 0.76 3.186 L 2.713 3.186 C 2.956 3.186 3.191 3.307 3.328 3.505 L 5.821 7 L 3.328 10.488 C 3.184 10.686 2.956 10.807 2.713 10.807 L 0.76 10.807 C 0.342 10.807 0 11.149 0 11.567 C 0 11.985 0.342 12.327 0.76 12.327 L 2.713 12.327 C 3.45 12.327 4.141 11.97 4.567 11.377 L 6.755 8.315 L 8.936 11.377 C 9.362 11.977 10.053 12.334 10.79 12.334 L 12.599 12.334 L 12.203 12.73 C 11.907 13.026 11.907 13.505 12.203 13.801 C 12.355 13.953 12.545 14.021 12.743 14.021 C 12.94 14.021 13.13 13.945 13.282 13.801 L 14.969 12.114 C 15.038 12.046 15.099 11.962 15.136 11.863 C 15.212 11.681 15.212 11.468 15.136 11.286 L 15.121 11.286 Z" fill="currentColor" fill-rule="nonzero"></path>
</svg>