<svg xmlns="http://www.w3.org/2000/svg" width="10.579" height="10.579" viewBox="0 0 10.579 10.579" fill="none">
  <path d="M 5.289 10.579 C 2.364 10.579 0 8.215 0 5.289 C 0 2.364 2.364 0 5.289 0 C 8.215 0 10.579 2.364 10.579 5.289 C 10.579 8.215 8.215 10.579 5.289 10.579 Z M 5.289 0.885 C 2.85 0.885 0.885 2.85 0.885 5.289 C 0.885 7.729 2.85 9.693 5.289 9.693 C 7.729 9.693 9.693 7.729 9.693 5.289 C 9.693 2.85 7.729 0.885 5.289 0.885 Z M 7.362 7.362 C 7.2 7.524 6.93 7.524 6.768 7.362 L 5.279 5.872 L 3.8 7.362 C 3.638 7.535 3.379 7.535 3.206 7.383 C 3.033 7.222 3.033 6.962 3.184 6.79 C 3.195 6.779 3.195 6.779 3.206 6.768 L 4.696 5.289 L 3.206 3.8 C 3.033 3.638 3.033 3.379 3.184 3.206 C 3.346 3.033 3.605 3.033 3.778 3.184 C 3.789 3.195 3.789 3.195 3.8 3.206 L 5.289 4.696 L 6.779 3.206 C 6.941 3.044 7.2 3.033 7.373 3.195 C 7.535 3.357 7.545 3.616 7.383 3.789 C 7.383 3.789 7.383 3.789 7.373 3.8 L 5.872 5.289 L 7.362 6.779 C 7.524 6.93 7.524 7.2 7.362 7.362 Z" fill="currentColor" fill-rule="nonzero"></path>
</svg>