<svg xmlns="http://www.w3.org/2000/svg" width="10.490" height="10.491" viewBox="0 0 10.490 10.491" fill="none">
  <path d="M 1.536 8.955 C 2.269 9.688 3.204 10.188 4.221 10.39 C 5.239 10.593 6.294 10.489 7.252 10.092 C 8.211 9.695 9.03 9.022 9.606 8.16 C 10.183 7.297 10.49 6.283 10.49 5.246 C 10.49 4.208 10.183 3.194 9.606 2.331 C 9.03 1.469 8.211 0.796 7.252 0.399 C 6.294 0.002 5.239 -0.102 4.221 0.101 C 3.204 0.303 2.269 0.803 1.536 1.536 C 0.552 2.52 0 3.854 0 5.246 C 0 6.637 0.552 7.971 1.536 8.955 Z M 2.958 5.661 L 3.032 3.825 C 3.041 3.618 3.127 3.421 3.274 3.275 C 3.421 3.128 3.617 3.041 3.825 3.032 L 5.66 2.959 C 6.489 2.924 6.544 4.182 5.711 4.218 L 5.129 4.241 L 7.217 6.326 C 7.812 6.926 6.911 7.793 6.325 7.218 L 4.24 5.13 L 4.217 5.711 C 4.18 6.549 2.928 6.497 2.958 5.661 Z" fill="currentColor" fill-rule="nonzero"></path>
</svg>