<svg xmlns="http://www.w3.org/2000/svg" width="11.289" height="14.163" viewBox="0 0 11.289 14.163" fill="none">
  <path d="M 9.973 3.216 L 1.316 3.216 C 1.071 3.216 0.873 3.414 0.873 3.658 L 0.873 11.557 C 0.873 12.994 2.043 14.163 3.48 14.163 L 7.809 14.163 C 9.246 14.163 10.415 12.994 10.415 11.557 L 10.415 3.658 C 10.415 3.414 10.217 3.216 9.973 3.216 Z M 9.53 11.557 C 9.53 12.506 8.758 13.278 7.809 13.278 L 3.48 13.278 C 2.531 13.278 1.759 12.506 1.759 11.557 L 1.759 4.101 L 9.53 4.101 L 9.53 11.557 Z M 10.846 1.555 L 8.294 1.555 C 8.324 1.449 8.341 1.337 8.341 1.22 C 8.341 0.547 7.792 0 7.117 0 L 4.172 0 C 3.497 0 2.948 0.547 2.948 1.22 C 2.948 1.337 2.965 1.449 2.995 1.555 L 0.443 1.555 C 0.198 1.555 0 1.754 0 1.998 C 0 2.242 0.198 2.441 0.443 2.441 L 4.171 2.441 C 4.171 2.441 4.171 2.441 4.172 2.441 C 4.172 2.441 4.172 2.441 4.172 2.441 L 7.117 2.441 C 7.117 2.441 7.117 2.441 7.117 2.441 C 7.118 2.441 7.118 2.441 7.118 2.441 L 10.846 2.441 C 11.091 2.441 11.289 2.242 11.289 1.998 C 11.289 1.754 11.091 1.555 10.846 1.555 Z M 3.833 1.22 C 3.833 1.036 3.985 0.885 4.172 0.885 L 7.117 0.885 C 7.304 0.885 7.456 1.036 7.456 1.22 C 7.456 1.405 7.304 1.555 7.118 1.555 L 4.171 1.555 C 3.985 1.555 3.833 1.405 3.833 1.22 Z M 3.182 10.7 L 3.182 6.679 C 3.182 6.435 3.38 6.237 3.624 6.237 C 3.869 6.237 4.067 6.435 4.067 6.679 L 4.067 10.7 C 4.067 10.944 3.869 11.142 3.624 11.142 C 3.38 11.142 3.182 10.944 3.182 10.7 Z M 5.202 10.7 L 5.202 6.679 C 5.202 6.435 5.4 6.237 5.644 6.237 C 5.889 6.237 6.087 6.435 6.087 6.679 L 6.087 10.7 C 6.087 10.944 5.889 11.142 5.644 11.142 C 5.4 11.142 5.202 10.944 5.202 10.7 Z M 7.222 10.7 L 7.222 6.679 C 7.222 6.435 7.42 6.237 7.665 6.237 C 7.909 6.237 8.107 6.435 8.107 6.679 L 8.107 10.7 C 8.107 10.944 7.909 11.142 7.665 11.142 C 7.42 11.142 7.222 10.944 7.222 10.7 Z" fill="currentColor" fill-rule="nonzero"></path>
</svg>