<svg xmlns="http://www.w3.org/2000/svg" width="6.253" height="7.116" viewBox="0 0 6.253 7.116" fill="none">
  <path d="M 6.082 3.262 L 0.516 0.047 C 0.464 0.016 0.405 0 0.345 0 C 0.284 0.001 0.225 0.017 0.172 0.047 C 0.119 0.077 0.075 0.12 0.045 0.172 C 0.015 0.225 -0.001 0.284 0 0.345 L 0 6.772 C 0 6.833 0.016 6.892 0.046 6.944 C 0.076 6.997 0.12 7.04 0.172 7.07 C 0.224 7.1 0.284 7.116 0.344 7.116 C 0.405 7.116 0.464 7.1 0.516 7.07 L 6.082 3.857 C 6.134 3.827 6.177 3.783 6.207 3.731 C 6.238 3.679 6.253 3.619 6.253 3.559 C 6.253 3.499 6.238 3.44 6.207 3.387 C 6.177 3.335 6.134 3.292 6.082 3.262 Z" fill="currentColor" fill-rule="nonzero"></path>
</svg>