<svg xmlns="http://www.w3.org/2000/svg" width="14.679" height="14.679" viewBox="0 0 14.679 14.679" fill="none">
  <path d="M 0 2.002 C 0 0.896 0.896 0 2.002 0 L 6.787 0 C 7.317 0 7.827 0.211 8.202 0.586 L 10.756 3.141 C 11.132 3.516 11.343 4.025 11.343 4.556 L 11.343 4.671 C 11.343 5.039 11.044 5.338 10.675 5.338 L 8.007 5.338 C 6.901 5.338 6.005 4.442 6.005 3.336 L 6.005 1.334 L 2.002 1.334 C 1.633 1.334 1.334 1.633 1.334 2.002 L 1.334 12.677 C 1.334 13.046 1.633 13.344 2.002 13.344 L 10.675 13.344 C 11.044 13.344 11.343 13.643 11.343 14.012 C 11.343 14.38 11.044 14.679 10.675 14.679 L 2.002 14.679 C 0.896 14.679 0 13.783 0 12.677 L 0 2.002 Z M 7.339 1.611 L 9.732 4.003 L 8.007 4.003 C 7.638 4.003 7.339 3.705 7.339 3.336 L 7.339 1.611 Z M 14.483 9.813 L 12.482 11.814 C 12.221 12.075 11.799 12.075 11.538 11.814 C 11.278 11.554 11.278 11.131 11.538 10.871 L 12.401 10.008 L 6.005 10.008 C 5.636 10.008 5.338 9.71 5.338 9.341 C 5.338 8.973 5.636 8.674 6.005 8.674 L 12.401 8.674 L 11.538 7.811 C 11.278 7.551 11.278 7.128 11.538 6.868 C 11.799 6.607 12.221 6.607 12.482 6.868 L 14.483 8.869 C 14.744 9.13 14.744 9.552 14.483 9.813 Z" fill="currentColor" fill-rule="evenodd"></path>
</svg>