<svg xmlns="http://www.w3.org/2000/svg" width="11.269" height="11.298" viewBox="0 0 11.269 11.298" fill="none">
  <path d="M 0.371 0 C 0.166 0.001 0 0.166 0 0.371 L 0 4.188 C 0 4.286 0.039 4.38 0.108 4.45 C 0.178 4.519 0.272 4.559 0.371 4.559 C 0.469 4.559 0.563 4.519 0.633 4.45 C 0.702 4.38 0.741 4.286 0.741 4.188 L 0.741 0.742 L 4.177 0.742 L 4.177 0.741 C 4.382 0.741 4.547 0.575 4.547 0.371 C 4.547 0.166 4.381 0 4.177 0 L 0.371 0 Z M 7.092 0 C 6.888 0 6.722 0.166 6.721 0.371 C 6.721 0.575 6.887 0.741 7.092 0.741 L 10.527 0.741 L 10.527 4.188 C 10.527 4.286 10.567 4.38 10.636 4.45 C 10.705 4.519 10.8 4.558 10.898 4.558 C 10.996 4.558 11.091 4.519 11.16 4.45 C 11.23 4.38 11.269 4.286 11.269 4.188 L 11.269 0.371 C 11.268 0.166 11.103 0 10.898 0 L 7.092 0 Z M 0.371 6.738 C 0.272 6.738 0.178 6.778 0.108 6.848 C 0.038 6.917 0 7.012 0 7.11 L 0 10.928 C 0 11.132 0.166 11.298 0.371 11.298 L 4.177 11.298 C 4.382 11.298 4.547 11.132 4.547 10.928 C 4.547 10.723 4.382 10.557 4.177 10.557 L 0.742 10.557 L 0.742 7.111 L 0.741 7.11 C 0.742 7.012 0.703 6.917 0.633 6.848 C 0.564 6.778 0.469 6.738 0.371 6.738 Z M 10.898 6.738 C 10.799 6.738 10.705 6.778 10.635 6.848 C 10.566 6.917 10.527 7.012 10.527 7.11 L 10.527 10.557 L 7.092 10.557 L 7.092 10.557 C 6.887 10.557 6.721 10.723 6.721 10.928 C 6.721 11.132 6.887 11.298 7.092 11.298 L 10.898 11.298 C 11.102 11.298 11.269 11.132 11.269 10.928 L 11.269 7.11 C 11.269 7.012 11.23 6.917 11.16 6.847 C 11.091 6.778 10.996 6.738 10.898 6.738 Z" fill="currentColor" fill-rule="nonzero"></path>
</svg>