<svg xmlns="http://www.w3.org/2000/svg" width="13" height="15" viewBox="0 0 13 15" fill="none">
  <path d="M 10.457 9.825 C 10.457 9.712 10.353 9.62 10.227 9.62 L 7.956 9.62 C 7.828 9.62 7.726 9.712 7.726 9.825 L 7.726 11.858 C 7.726 11.972 7.828 12.064 7.956 12.064 L 10.227 12.064 C 10.353 12.064 10.457 11.972 10.457 11.858 L 10.457 9.825 Z M 8.499 9.165 L 9.682 9.165 L 9.682 8.51 C 9.682 8.219 9.418 7.982 9.092 7.982 C 8.766 7.982 8.499 8.219 8.499 8.51 L 8.499 9.165 Z M 10.964 9.825 L 10.964 11.858 C 10.964 12.222 10.634 12.518 10.227 12.518 L 7.956 12.518 C 7.549 12.518 7.217 12.222 7.217 11.858 L 7.217 9.825 C 7.217 9.461 7.549 9.165 7.956 9.165 L 7.992 9.165 L 7.992 8.51 C 7.992 7.968 8.484 7.527 9.092 7.527 C 9.697 7.527 10.189 7.968 10.189 8.51 L 10.189 9.165 L 10.227 9.165 C 10.634 9.165 10.964 9.461 10.964 9.825 Z M 12.473 7.648 C 12.492 8.369 12.505 9.029 12.467 9.682 L 12.467 9.694 L 12.467 11.446 C 12.467 12.1 12.132 12.662 11.527 13.028 L 9.092 14.497 L 6.656 13.028 C 6.049 12.662 5.715 12.1 5.715 11.446 L 5.715 9.694 C 5.715 9.69 5.715 9.686 5.715 9.682 C 5.678 9.03 5.689 8.37 5.71 7.648 C 6.9 7.462 8.11 7.079 9.092 6.553 C 10.077 7.081 11.282 7.461 12.473 7.648 Z M 5.209 11.539 L 1.097 11.539 C 0.771 11.539 0.507 11.302 0.507 11.012 L 0.507 6.225 C 0.507 5.935 0.771 5.698 1.097 5.698 L 9.963 5.698 C 10.289 5.698 10.553 5.935 10.553 6.225 L 10.553 6.69 C 10.072 6.518 9.624 6.317 9.226 6.094 C 9.143 6.047 9.038 6.047 8.955 6.094 C 7.94 6.662 6.671 7.058 5.423 7.23 C 5.301 7.246 5.212 7.338 5.207 7.448 C 5.184 8.252 5.167 8.977 5.207 9.7 L 5.207 11.446 C 5.207 11.477 5.207 11.508 5.209 11.539 Z M 2.122 1.168 C 2.129 1.168 2.135 1.162 2.135 1.157 L 2.135 0.776 L 1.696 1.168 L 2.122 1.168 Z M 8.825 0.454 C 8.832 0.454 8.838 0.46 8.838 0.466 L 8.838 5.243 L 1.338 5.243 L 1.338 1.623 L 2.122 1.623 C 2.41 1.623 2.644 1.413 2.644 1.157 L 2.644 0.454 L 8.825 0.454 Z M 9.345 2.687 L 9.345 5.243 L 9.963 5.243 C 10.568 5.243 11.06 5.684 11.06 6.225 L 11.06 6.858 C 11.402 6.96 11.729 7.043 12.081 7.114 L 12.081 3.318 C 12.081 2.97 11.766 2.687 11.376 2.687 L 9.345 2.687 Z M 12.976 9.7 L 12.976 11.446 C 12.976 12.256 12.562 12.952 11.81 13.405 L 9.232 14.96 C 9.069 15.058 8.939 14.955 8.819 14.88 L 6.371 13.405 C 5.795 13.057 5.418 12.568 5.276 11.993 L 1.097 11.993 C 0.492 11.993 0 11.553 0 11.012 L 0 6.225 C 0 5.766 0.354 5.38 0.829 5.273 L 0.829 1.395 C 0.829 1.335 0.857 1.277 0.903 1.235 L 2.21 0.066 C 2.256 0.024 2.322 0 2.388 0 L 8.825 0 C 9.111 0 9.345 0.209 9.345 0.466 L 9.345 2.232 L 11.376 2.232 C 12.045 2.232 12.59 2.72 12.59 3.318 L 12.59 7.205 C 12.646 7.213 12.703 7.222 12.758 7.23 C 12.88 7.246 12.972 7.338 12.974 7.448 C 12.999 8.251 13.016 8.975 12.976 9.7 Z M 7.679 3.885 L 2.497 3.885 C 2.357 3.885 2.244 3.987 2.244 4.112 C 2.244 4.238 2.357 4.339 2.497 4.339 L 7.679 4.339 C 7.82 4.339 7.933 4.238 7.933 4.112 C 7.933 3.987 7.82 3.885 7.679 3.885 Z M 7.679 2.527 L 2.497 2.527 C 2.357 2.527 2.244 2.628 2.244 2.754 C 2.244 2.879 2.357 2.981 2.497 2.981 L 7.679 2.981 C 7.82 2.981 7.933 2.879 7.933 2.754 C 7.933 2.628 7.82 2.527 7.679 2.527 Z" fill="currentColor" fill-rule="evenodd"></path>
</svg>