<svg xmlns="http://www.w3.org/2000/svg" width="16.419" height="15.858" viewBox="0 0 16.419 15.858" fill="none">
  <path d="M 13.85 14.884 C 11.922 14.925 10.624 12.689 11.625 11.028 C 11.897 10.559 12.31 10.188 12.805 9.968 C 13.299 9.747 13.851 9.688 14.381 9.798 C 14.528 8.604 14.324 7.393 13.793 6.313 C 13.263 5.234 12.429 4.332 11.393 3.719 C 11.327 3.679 11.279 3.615 11.26 3.539 C 11.241 3.464 11.252 3.384 11.291 3.317 C 11.31 3.284 11.336 3.255 11.367 3.232 C 11.398 3.209 11.433 3.192 11.47 3.182 C 11.508 3.173 11.547 3.171 11.585 3.176 C 11.623 3.182 11.66 3.195 11.693 3.215 C 12.845 3.895 13.769 4.902 14.348 6.108 C 14.927 7.314 15.136 8.664 14.948 9.989 C 17.445 11.185 16.553 14.869 13.85 14.884 Z M 11.253 14.482 C 10.324 15 9.278 15.273 8.215 15.273 C 7.151 15.273 6.106 15 5.177 14.482 C 4.938 14.348 4.709 14.196 4.493 14.027 C 4.902 13.572 5.134 12.986 5.15 12.374 C 5.165 11.763 4.961 11.166 4.576 10.691 C 4.19 10.216 3.648 9.894 3.046 9.783 C 2.445 9.672 1.823 9.779 1.294 10.086 C -1.709 11.993 1.062 16.325 4.047 14.424 C 5.102 15.244 6.375 15.736 7.707 15.838 C 9.04 15.94 10.373 15.647 11.54 14.996 C 11.607 14.957 11.655 14.893 11.676 14.819 C 11.696 14.745 11.686 14.665 11.648 14.598 C 11.611 14.531 11.548 14.481 11.474 14.459 C 11.4 14.438 11.321 14.446 11.253 14.482 Z M 1.708 9.267 C 1.785 9.267 1.86 9.236 1.915 9.182 C 1.971 9.128 2.003 9.054 2.004 8.976 C 2.014 7.912 2.298 6.869 2.83 5.947 C 3.362 5.025 4.123 4.257 5.039 3.716 C 5.276 3.58 5.521 3.457 5.773 3.35 C 5.963 3.931 6.354 4.426 6.877 4.745 C 7.399 5.065 8.018 5.187 8.623 5.09 C 9.227 4.994 9.778 4.685 10.175 4.219 C 10.572 3.753 10.789 3.16 10.789 2.548 C 10.652 -1.001 5.491 -0.762 5.655 2.763 C 4.415 3.262 3.35 4.118 2.596 5.223 C 1.842 6.327 1.431 7.63 1.417 8.967 C 1.416 9.006 1.423 9.045 1.437 9.081 C 1.452 9.117 1.473 9.15 1.5 9.178 C 1.527 9.206 1.559 9.228 1.595 9.243 C 1.631 9.258 1.669 9.266 1.708 9.267 Z M 9.823 6.886 L 7.361 9.044 L 6.589 8.272 C 6.445 8.131 6.251 8.053 6.049 8.054 C 5.848 8.056 5.655 8.136 5.513 8.279 C 5.371 8.422 5.291 8.615 5.29 8.816 C 5.289 9.017 5.368 9.211 5.509 9.355 L 6.844 10.69 C 6.979 10.824 7.16 10.902 7.35 10.908 C 7.54 10.914 7.725 10.848 7.868 10.722 L 10.874 8.093 C 11.031 7.952 11.126 7.756 11.139 7.546 C 11.153 7.336 11.082 7.129 10.944 6.971 C 10.806 6.812 10.611 6.714 10.401 6.698 C 10.191 6.683 9.984 6.75 9.823 6.886 Z" fill="currentColor" fill-rule="nonzero"></path>
</svg>