<svg xmlns="http://www.w3.org/2000/svg" width="16.206" height="17.707" viewBox="0 0 16.206 17.707" fill="none">
  <path d="M 1.163 4.117 L 1.163 3.116 C 1.163 2.259 1.513 1.48 2.078 0.915 C 2.643 0.35 3.422 0 4.279 0 C 5.137 0 5.916 0.35 6.481 0.915 C 7.045 1.48 7.396 2.259 7.396 3.116 L 7.396 4.117 L 6.037 4.117 L 6.037 3.116 C 6.037 2.634 5.839 2.194 5.52 1.875 C 5.201 1.557 4.762 1.359 4.279 1.359 C 3.797 1.359 3.358 1.557 3.039 1.875 C 2.72 2.194 2.522 2.634 2.522 3.116 L 2.522 4.117 L 1.163 4.117 Z M 4.207 12.672 C 3.395 12.658 1.971 12.662 1.007 12.666 C 0.452 12.669 0 12.221 0 11.665 C 0 10.619 0 9.044 0 8.393 L 0 4.973 C 0 4.913 0.024 4.856 0.066 4.814 C 0.108 4.772 0.166 4.748 0.225 4.748 L 8.333 4.748 C 8.393 4.748 8.45 4.772 8.493 4.814 C 8.535 4.856 8.559 4.913 8.559 4.973 L 8.559 7.29 C 8.34 7.379 8.073 7.35 7.877 7.153 C 7.485 6.761 6.849 6.761 6.457 7.153 L 5.652 7.958 C 5.26 8.35 5.26 8.986 5.652 9.378 C 6.047 9.773 5.767 10.449 5.208 10.449 C 4.654 10.449 4.204 10.899 4.204 11.453 L 4.204 12.59 C 4.204 12.618 4.205 12.645 4.207 12.672 Z M 15.832 12.963 C 14.713 12.963 14.151 14.32 14.943 15.112 C 15.088 15.257 15.088 15.494 14.943 15.64 L 14.139 16.444 C 13.993 16.59 13.756 16.59 13.61 16.444 C 12.819 15.652 11.462 16.214 11.462 17.334 C 11.462 17.541 11.295 17.707 11.089 17.707 L 9.952 17.707 C 9.746 17.707 9.579 17.541 9.579 17.334 C 9.579 16.213 8.223 15.652 7.43 16.444 C 7.285 16.59 7.048 16.59 6.903 16.444 L 6.098 15.64 C 5.952 15.494 5.952 15.257 6.098 15.112 C 6.89 14.32 6.329 12.963 5.208 12.963 C 5.002 12.963 4.835 12.796 4.835 12.59 L 4.835 11.453 C 4.835 11.247 5.002 11.08 5.208 11.08 C 6.329 11.08 6.89 9.723 6.098 8.932 C 5.952 8.786 5.952 8.55 6.098 8.404 L 6.903 7.599 C 7.048 7.454 7.285 7.454 7.43 7.599 C 8.222 8.391 9.579 7.83 9.579 6.71 C 9.579 6.503 9.746 6.336 9.952 6.336 L 11.089 6.336 C 11.295 6.336 11.462 6.503 11.462 6.71 C 11.462 7.83 12.819 8.391 13.61 7.599 C 13.756 7.454 13.993 7.454 14.139 7.599 L 14.943 8.404 C 15.088 8.55 15.088 8.786 14.943 8.932 C 14.151 9.723 14.713 11.08 15.832 11.08 C 16.039 11.08 16.206 11.247 16.206 11.453 L 16.206 12.59 C 16.206 12.796 16.039 12.963 15.832 12.963 Z M 10.521 15.191 C 12.266 15.191 13.69 13.767 13.69 12.022 C 13.69 10.276 12.266 8.853 10.521 8.853 C 8.775 8.853 7.352 10.276 7.352 12.022 C 7.352 13.767 8.775 15.191 10.521 15.191 Z M 10.521 14.56 C 9.122 14.56 7.982 13.42 7.982 12.022 C 7.982 10.624 9.122 9.484 10.521 9.484 C 11.919 9.484 13.059 10.624 13.059 12.022 C 13.059 13.42 11.919 14.56 10.521 14.56 Z M 10.836 11.698 L 10.982 11.91 C 11.08 12.054 11.277 12.09 11.42 11.992 C 11.564 11.893 11.6 11.697 11.502 11.553 L 10.78 10.503 C 10.722 10.417 10.624 10.366 10.52 10.366 C 10.417 10.366 10.319 10.417 10.26 10.503 L 9.539 11.553 C 9.44 11.697 9.477 11.893 9.62 11.992 C 9.764 12.09 9.96 12.054 10.059 11.91 L 10.205 11.698 L 10.205 13.428 C 10.205 13.602 10.346 13.743 10.52 13.743 C 10.695 13.743 10.836 13.602 10.836 13.428 L 10.836 11.698 Z" fill="currentColor" fill-rule="evenodd"></path>
</svg>