<svg xmlns="http://www.w3.org/2000/svg" width="9.607" height="11.278" viewBox="0 0 9.607 11.278" fill="none">
  <path d="M 1.671 8.563 C 1.671 8.448 1.764 8.354 1.88 8.354 L 7.728 8.354 C 7.843 8.354 7.936 8.448 7.936 8.563 C 7.936 8.678 7.843 8.772 7.728 8.772 L 1.88 8.772 C 1.764 8.772 1.671 8.678 1.671 8.563 Z M 1.88 9.607 L 4.804 9.607 C 4.919 9.607 5.013 9.514 5.013 9.398 C 5.013 9.283 4.919 9.189 4.804 9.189 L 1.88 9.189 C 1.764 9.189 1.671 9.283 1.671 9.398 C 1.671 9.514 1.764 9.607 1.88 9.607 Z M 1.88 10.443 L 4.804 10.443 C 4.919 10.443 5.013 10.349 5.013 10.234 C 5.013 10.118 4.919 10.025 4.804 10.025 L 1.88 10.025 C 1.764 10.025 1.671 10.118 1.671 10.234 C 1.671 10.349 1.764 10.443 1.88 10.443 Z M 9.607 3.968 L 9.607 7.31 C 9.607 7.656 9.327 7.936 8.981 7.936 L 8.772 7.936 L 8.772 10.651 C 8.772 10.997 8.491 11.278 8.145 11.278 L 1.462 11.278 C 1.116 11.278 0.835 10.997 0.835 10.651 L 0.835 7.936 L 0.627 7.936 C 0.28 7.936 0 7.656 0 7.31 L 0 3.968 C 0 3.622 0.28 3.342 0.627 3.342 L 0.835 3.342 L 0.835 0.627 C 0.835 0.28 1.116 0 1.462 0 L 6.111 0 C 6.146 0.006 6.178 0.024 6.203 0.05 L 8.709 2.556 C 8.735 2.581 8.753 2.613 8.759 2.648 L 8.759 2.673 L 8.759 2.703 L 8.759 3.329 L 8.981 3.329 C 9.149 3.329 9.31 3.397 9.428 3.517 C 9.546 3.637 9.61 3.8 9.607 3.968 Z M 6.266 0.714 L 6.266 2.506 L 8.057 2.506 L 6.266 0.714 Z M 1.253 3.341 L 8.354 3.341 L 8.354 2.924 L 6.057 2.924 C 5.941 2.924 5.848 2.83 5.848 2.715 L 5.848 0.418 L 1.462 0.418 C 1.347 0.418 1.253 0.511 1.253 0.626 L 1.253 3.341 Z M 8.354 7.936 L 1.253 7.936 L 1.253 10.651 C 1.253 10.707 1.275 10.76 1.314 10.799 C 1.353 10.838 1.407 10.86 1.462 10.86 L 8.145 10.86 C 8.201 10.86 8.254 10.838 8.293 10.799 C 8.332 10.76 8.354 10.707 8.354 10.651 L 8.354 7.936 Z M 9.189 3.968 C 9.189 3.913 9.168 3.859 9.128 3.82 C 9.089 3.781 9.036 3.759 8.981 3.759 L 0.627 3.759 C 0.511 3.759 0.418 3.853 0.418 3.968 L 0.418 7.31 C 0.418 7.365 0.44 7.418 0.479 7.457 C 0.518 7.497 0.571 7.518 0.627 7.518 L 8.981 7.518 C 9.036 7.518 9.089 7.497 9.128 7.457 C 9.168 7.418 9.189 7.365 9.189 7.31 L 9.189 3.968 Z M 3.362 4.177 C 3.271 4.168 3.184 4.221 3.149 4.306 L 2.506 5.91 L 1.88 4.306 C 1.867 4.191 1.763 4.108 1.648 4.12 C 1.532 4.133 1.449 4.237 1.462 4.352 L 1.044 6.858 C 1.035 6.913 1.047 6.969 1.08 7.014 C 1.112 7.058 1.161 7.088 1.215 7.097 C 1.271 7.108 1.329 7.096 1.375 7.063 C 1.421 7.031 1.453 6.981 1.462 6.925 L 1.758 5.154 L 2.297 6.554 C 2.333 6.628 2.407 6.675 2.489 6.675 C 2.571 6.675 2.646 6.628 2.682 6.554 L 3.241 5.154 L 3.55 6.925 C 3.565 7.027 3.653 7.102 3.755 7.101 L 3.789 7.101 C 3.843 7.092 3.892 7.063 3.924 7.018 C 3.957 6.973 3.969 6.917 3.96 6.863 L 3.542 4.356 C 3.53 4.263 3.456 4.189 3.362 4.177 Z M 6.412 6.746 C 6.452 6.784 6.475 6.837 6.475 6.892 C 6.475 6.947 6.452 7 6.412 7.038 C 6.374 7.078 6.321 7.101 6.265 7.101 C 6.21 7.101 6.157 7.078 6.119 7.038 L 5.927 6.85 C 5.81 7.007 5.626 7.1 5.43 7.101 L 5.012 7.101 C 4.666 7.101 4.386 6.82 4.386 6.474 L 4.386 4.803 C 4.386 4.457 4.666 4.177 5.012 4.177 L 5.43 4.177 C 5.776 4.177 6.057 4.457 6.057 4.803 L 6.057 6.387 L 6.412 6.746 Z M 5.639 6.545 L 5.296 6.203 C 5.215 6.122 5.215 5.991 5.296 5.91 C 5.377 5.829 5.508 5.829 5.589 5.91 L 5.651 5.969 L 5.651 4.803 C 5.651 4.748 5.63 4.695 5.59 4.656 C 5.551 4.616 5.498 4.595 5.443 4.595 L 5.025 4.595 C 4.909 4.595 4.816 4.688 4.816 4.803 L 4.816 6.474 C 4.816 6.53 4.838 6.583 4.877 6.622 C 4.916 6.661 4.97 6.683 5.025 6.683 L 5.443 6.683 C 5.53 6.68 5.607 6.627 5.639 6.545 Z M 8.366 6.683 L 7.31 6.683 L 7.31 4.386 C 7.31 4.27 7.216 4.177 7.101 4.177 C 6.985 4.177 6.892 4.27 6.892 4.386 L 6.892 6.892 C 6.892 6.947 6.914 7 6.953 7.04 C 6.992 7.079 7.045 7.101 7.101 7.101 L 8.354 7.101 C 8.469 7.101 8.563 7.007 8.563 6.892 C 8.563 6.776 8.469 6.683 8.354 6.683 L 8.366 6.683 Z" fill="currentColor" fill-rule="nonzero"></path>
</svg>