<svg xmlns="http://www.w3.org/2000/svg" width="12.420" height="12.419" viewBox="0 0 12.420 12.419" fill="none">
  <path d="M 11.884 2.675 L 9.744 0.536 C 9.03 -0.179 7.868 -0.179 7.154 0.536 C 6.584 1.106 6.477 1.959 6.818 2.644 L 4.957 4.505 C 4.907 4.554 4.834 4.536 4.812 4.53 C 3.781 4.211 2.663 4.258 1.665 4.662 C 1.178 4.86 0.825 5.288 0.72 5.806 C 0.613 6.334 0.776 6.875 1.155 7.255 L 2.893 8.993 L 0.111 11.775 C -0.037 11.922 -0.037 12.161 0.111 12.308 C 0.184 12.382 0.281 12.419 0.377 12.419 C 0.473 12.419 0.57 12.382 0.644 12.308 L 3.426 9.526 L 5.162 11.261 C 5.466 11.565 5.872 11.729 6.292 11.729 C 6.399 11.729 6.507 11.719 6.614 11.697 C 7.133 11.591 7.561 11.238 7.758 10.751 C 8.162 9.754 8.209 8.636 7.889 7.606 C 7.883 7.584 7.865 7.511 7.913 7.463 L 9.775 5.601 C 10.032 5.728 10.309 5.8 10.589 5.8 C 11.058 5.8 11.526 5.621 11.883 5.264 C 12.598 4.551 12.598 3.389 11.884 2.675 Z M 7.381 6.931 C 7.15 7.162 7.069 7.506 7.169 7.83 C 7.438 8.695 7.398 9.632 7.06 10.469 C 6.956 10.724 6.739 10.903 6.465 10.959 C 6.185 11.017 5.897 10.93 5.697 10.729 L 1.689 6.722 C 1.489 6.521 1.403 6.235 1.46 5.956 C 1.516 5.682 1.694 5.464 1.949 5.361 C 2.786 5.021 3.724 4.981 4.59 5.25 C 4.914 5.35 5.26 5.269 5.491 5.037 L 7.279 3.249 L 9.171 5.141 L 7.381 6.931 Z M 11.351 4.732 C 10.931 5.152 10.248 5.152 9.828 4.732 L 7.688 2.592 C 7.268 2.172 7.268 1.489 7.688 1.069 C 8.109 0.649 8.792 0.649 9.212 1.069 L 11.352 3.209 C 11.771 3.629 11.771 4.312 11.351 4.732 Z" fill="currentColor" fill-rule="nonzero"></path>
</svg>