<svg xmlns="http://www.w3.org/2000/svg" width="5.715" height="5.715" viewBox="0 0 5.715 5.715" fill="none">
  <path d="M 2.857 5.715 C 2.292 5.715 1.74 5.547 1.27 5.233 C 0.8 4.919 0.434 4.473 0.218 3.951 C 0.001 3.429 -0.055 2.854 0.055 2.3 C 0.165 1.746 0.437 1.237 0.837 0.837 C 1.237 0.437 1.746 0.165 2.3 0.055 C 2.854 -0.055 3.429 0.001 3.951 0.218 C 4.473 0.434 4.919 0.8 5.233 1.27 C 5.547 1.74 5.715 2.292 5.715 2.857 C 5.714 3.615 5.413 4.341 4.877 4.877 C 4.341 5.413 3.615 5.714 2.857 5.715 Z M 2.857 0.816 C 2.454 0.816 2.059 0.936 1.723 1.16 C 1.388 1.385 1.126 1.703 0.972 2.076 C 0.817 2.449 0.777 2.86 0.856 3.256 C 0.934 3.651 1.129 4.015 1.414 4.301 C 1.7 4.586 2.063 4.78 2.459 4.859 C 2.855 4.938 3.265 4.897 3.638 4.743 C 4.011 4.588 4.33 4.327 4.554 3.991 C 4.779 3.656 4.898 3.261 4.898 2.857 C 4.898 2.316 4.682 1.797 4.3 1.415 C 3.917 1.032 3.398 0.817 2.857 0.816 Z" fill="currentColor" fill-rule="nonzero"></path>
</svg>