<svg xmlns="http://www.w3.org/2000/svg" width="9.222" height="9.222" viewBox="0 0 9.222 9.222" fill="none">
  <path d="M 1.21 9.222 L 2.513 9.222 C 2.836 9.222 3.139 9.097 3.367 8.868 L 5.8 6.435 L 8.088 8.723 C 8.256 8.892 8.551 8.892 8.719 8.723 C 8.893 8.549 8.893 8.267 8.719 8.093 L 6.431 5.804 L 8.773 3.462 C 9.063 3.172 9.222 2.788 9.222 2.378 C 9.222 1.967 9.063 1.583 8.773 1.293 L 7.929 0.449 C 7.639 0.159 7.255 0 6.844 0 C 6.434 0 6.05 0.159 5.76 0.449 L 3.418 2.791 L 1.129 0.503 C 1.044 0.418 0.933 0.372 0.814 0.372 C 0.695 0.372 0.583 0.418 0.498 0.503 C 0.324 0.677 0.324 0.96 0.498 1.134 L 2.787 3.422 L 0.354 5.855 C 0.126 6.082 0 6.386 0 6.709 L 0 8.012 C 0 8.335 0.125 8.639 0.354 8.866 C 0.582 9.095 0.885 9.22 1.208 9.22 L 1.21 9.222 Z M 6.393 1.08 C 6.514 0.96 6.675 0.893 6.846 0.893 C 7.017 0.893 7.179 0.961 7.298 1.08 L 8.142 1.924 C 8.261 2.043 8.329 2.208 8.329 2.376 C 8.329 2.544 8.261 2.709 8.142 2.828 L 5.8 5.17 L 4.05 3.421 L 6.392 1.079 L 6.393 1.08 Z M 0.894 6.71 C 0.894 6.626 0.927 6.547 0.986 6.487 L 3.419 4.054 L 5.169 5.804 L 2.736 8.237 C 2.677 8.296 2.598 8.329 2.513 8.329 L 1.21 8.329 C 1.126 8.329 1.046 8.295 0.986 8.237 C 0.927 8.179 0.894 8.099 0.894 8.014 L 0.894 6.71 Z" fill="currentColor" fill-rule="nonzero"></path>
</svg>