<svg xmlns="http://www.w3.org/2000/svg" width="15.517" height="16.513" viewBox="0 0 15.517 16.513" fill="none">
  <path d="M 14.733 8.841 C 14.22 8.763 13.765 9.114 13.691 9.615 C 13.507 10.873 12.926 12.021 12.012 12.935 C 9.686 15.261 5.903 15.259 3.578 12.935 C 1.253 10.61 1.253 6.826 3.578 4.501 C 4.452 3.627 5.557 3.057 6.792 2.85 C 7.324 2.749 7.895 2.731 8.488 2.798 C 9.302 2.892 10.059 3.162 10.75 3.559 L 9.556 3.763 C 9.057 3.848 8.721 4.322 8.807 4.822 C 8.883 5.269 9.271 5.585 9.71 5.585 C 9.761 5.585 9.813 5.581 9.866 5.572 L 13.068 5.024 C 13.308 4.983 13.522 4.849 13.663 4.65 C 13.803 4.451 13.859 4.205 13.818 3.965 L 13.269 0.762 C 13.185 0.263 12.717 -0.071 12.21 0.013 C 11.711 0.098 11.375 0.573 11.461 1.073 L 11.605 1.915 C 10.717 1.417 9.737 1.095 8.696 0.975 C 7.917 0.886 7.161 0.911 6.468 1.043 C 4.875 1.31 3.427 2.057 2.28 3.203 C -0.76 6.244 -0.76 11.191 2.28 14.233 C 3.801 15.753 5.798 16.513 7.795 16.513 C 9.792 16.513 11.789 15.753 13.31 14.233 C 14.504 13.038 15.264 11.533 15.507 9.882 C 15.58 9.38 15.233 8.914 14.733 8.841 Z" fill="currentColor" fill-rule="nonzero"></path>
</svg>