<svg xmlns="http://www.w3.org/2000/svg" width="6.805" height="7.355" viewBox="0 0 6.805 7.355" fill="none">
  <path d="M 3.402 7.355 C 3.344 7.355 3.286 7.34 3.236 7.311 C 2.31 6.778 1.528 6.028 0.958 5.125 C 0.333 4.134 0.001 2.988 0 1.817 L 0 1.151 C 0 1 0.101 0.868 0.247 0.83 L 3.317 0.011 C 3.373 -0.004 3.432 -0.004 3.488 0.011 L 6.558 0.83 C 6.703 0.869 6.805 1.001 6.805 1.152 L 6.805 1.818 C 6.804 2.989 6.472 4.135 5.847 5.125 C 5.277 6.028 4.495 6.779 3.569 7.311 C 3.518 7.34 3.461 7.355 3.402 7.355 Z M 0.666 1.408 L 0.666 1.817 C 0.668 2.863 0.964 3.886 1.522 4.771 C 1.999 5.526 2.642 6.163 3.402 6.634 C 4.162 6.164 4.806 5.526 5.283 4.771 C 5.84 3.886 6.137 2.863 6.139 1.817 L 6.139 1.408 L 3.402 0.678 L 0.666 1.408 Z" fill="currentColor" fill-rule="nonzero"></path>
</svg>