<svg xmlns="http://www.w3.org/2000/svg" width="14.384" height="12.945" viewBox="0 0 14.384 12.945" fill="none">
  <path d="M 10.788 12.945 C 10.689 12.945 10.595 12.925 10.509 12.889 C 10.509 12.889 10.508 12.889 10.508 12.889 C 10.508 12.889 10.508 12.889 10.508 12.889 C 10.427 12.855 10.351 12.805 10.285 12.741 C 10.285 12.74 10.284 12.74 10.284 12.739 C 10.284 12.739 10.284 12.739 10.283 12.739 C 10.283 12.738 10.283 12.738 10.282 12.738 C 10.282 12.737 10.282 12.737 10.281 12.737 C 10.281 12.737 10.281 12.736 10.281 12.736 C 10.281 12.736 10.281 12.736 10.281 12.736 C 10.28 12.736 10.28 12.735 10.279 12.735 L 7.402 9.858 C 7.262 9.717 7.192 9.533 7.192 9.349 C 7.192 9.165 7.262 8.981 7.402 8.841 C 7.683 8.56 8.139 8.56 8.419 8.841 L 10.068 10.49 L 10.068 3.596 C 10.068 3.199 10.39 2.877 10.788 2.877 C 11.185 2.877 11.507 3.199 11.507 3.596 L 11.507 10.49 L 13.156 8.841 C 13.437 8.56 13.892 8.56 14.173 8.841 C 14.454 9.122 14.454 9.577 14.173 9.858 L 11.296 12.735 C 11.296 12.735 11.295 12.736 11.295 12.736 C 11.294 12.736 11.294 12.737 11.294 12.737 C 11.294 12.737 11.293 12.737 11.293 12.738 C 11.293 12.738 11.292 12.738 11.292 12.739 C 11.292 12.739 11.292 12.739 11.292 12.739 C 11.291 12.74 11.291 12.74 11.29 12.741 C 11.29 12.741 11.29 12.741 11.29 12.741 C 11.224 12.805 11.148 12.855 11.068 12.889 C 11.067 12.889 11.067 12.889 11.067 12.889 C 11.067 12.889 11.067 12.889 11.066 12.889 C 10.981 12.925 10.886 12.945 10.788 12.945 Z M 7.192 7.192 L 0.719 7.192 C 0.322 7.192 0 6.87 0 6.473 C 0 6.075 0.322 5.753 0.719 5.753 L 7.192 5.753 C 7.589 5.753 7.911 6.075 7.911 6.473 C 7.911 6.87 7.589 7.192 7.192 7.192 Z M 7.192 4.315 L 0.719 4.315 C 0.322 4.315 0 3.993 0 3.596 C 0 3.199 0.322 2.877 0.719 2.877 L 7.192 2.877 C 7.589 2.877 7.911 3.199 7.911 3.596 C 7.911 3.993 7.589 4.315 7.192 4.315 Z M 10.069 1.438 L 0.719 1.438 C 0.322 1.438 0 1.116 0 0.719 C 0 0.322 0.322 0 0.719 0 L 10.069 0 C 10.466 0 10.788 0.322 10.788 0.719 C 10.788 1.116 10.466 1.438 10.069 1.438 Z" fill="currentColor" fill-rule="nonzero"></path>
</svg>