<svg xmlns="http://www.w3.org/2000/svg" width="13.881" height="16.017" viewBox="0 0 13.881 16.017" fill="none">
  <path d="M 12.226 5.873 L 11.746 5.873 L 11.746 4.789 C 11.743 2.158 9.578 -0.001 6.957 0 C 4.323 0.001 2.155 2.183 2.173 4.826 L 2.173 5.873 L 1.655 5.873 C 0.742 5.873 0 6.631 0 7.571 L 0 14.319 C 0 15.259 0.742 16.017 1.655 16.017 L 12.226 16.017 C 13.139 16.017 13.881 15.259 13.881 14.319 L 13.881 7.571 C 13.881 6.631 13.139 5.873 12.226 5.873 Z M 7.475 11.1 L 7.475 12.28 C 7.475 12.573 7.234 12.814 6.941 12.814 C 6.647 12.814 6.407 12.573 6.407 12.28 L 6.407 11.1 C 5.937 10.892 5.606 10.422 5.606 9.877 C 5.606 9.14 6.204 8.542 6.941 8.542 C 7.677 8.542 8.275 9.14 8.275 9.877 C 8.275 10.422 7.944 10.892 7.475 11.1 Z M 9.61 5.873 L 4.309 5.873 L 4.309 4.81 C 4.297 3.347 5.498 2.137 6.957 2.136 C 8.41 2.134 9.61 3.331 9.61 4.789 L 9.61 5.873 Z" fill="currentColor" fill-rule="nonzero"></path>
</svg>