<svg xmlns="http://www.w3.org/2000/svg" width="13.100" height="7.370" viewBox="0 0 13.100 7.370" fill="none">
  <path d="M 0.811 7.37 C 0.681 7.37 0.555 7.339 0.44 7.28 C 0.131 7.129 -0.046 6.802 0.01 6.484 C 0.049 6.272 0.143 6.072 0.264 5.947 C 1.541 4.65 2.823 3.373 3.795 2.408 C 3.969 2.237 4.176 2.144 4.391 2.144 C 4.616 2.144 4.834 2.242 5.021 2.428 L 7.221 4.629 L 10.215 1.633 L 9.913 1.63 C 9.53 1.627 9.003 1.625 8.701 1.622 C 8.225 1.617 7.892 1.287 7.889 0.816 C 7.889 0.586 7.969 0.379 8.117 0.23 C 8.266 0.082 8.468 0.003 8.693 0.003 C 9.302 0 9.908 0 10.494 0 C 11.106 0 11.715 0.003 12.304 0.003 C 12.759 0.005 13.092 0.33 13.094 0.778 C 13.102 2.027 13.102 3.258 13.094 4.437 C 13.092 4.885 12.751 5.21 12.286 5.21 L 12.275 5.21 C 11.812 5.205 11.485 4.88 11.477 4.417 C 11.472 4.053 11.472 3.685 11.474 3.329 C 11.474 3.173 11.474 3.017 11.474 2.861 L 11.474 2.769 C 11.462 2.779 11.451 2.789 11.441 2.799 C 10.428 3.815 9.417 4.834 8.404 5.852 L 7.981 6.275 C 7.731 6.53 7.493 6.653 7.26 6.653 C 7.027 6.653 6.797 6.533 6.551 6.285 L 4.391 4.12 L 4.21 4.299 C 4.02 4.486 3.844 4.662 3.67 4.836 L 2.856 5.655 C 2.388 6.126 1.904 6.615 1.425 7.093 C 1.249 7.275 1.037 7.37 0.811 7.37 Z" fill="currentColor" fill-rule="nonzero"></path>
</svg>