<svg xmlns="http://www.w3.org/2000/svg" width="13.669" height="7.404" viewBox="0 0 13.669 7.404" fill="none">
  <path d="M 11.732 0.342 L 8.201 3.873 L 6.607 1.139 C 6.493 0.797 6.151 0.57 5.809 0.57 C 5.468 0.57 5.126 0.683 4.898 0.911 L 0.342 5.468 C -0.114 5.923 -0.114 6.607 0.342 7.062 C 0.57 7.29 0.797 7.404 1.139 7.404 C 1.481 7.404 1.709 7.29 1.936 7.062 L 5.468 3.531 L 7.062 6.265 C 7.176 6.607 7.518 6.834 7.86 6.834 C 8.201 6.834 8.543 6.721 8.771 6.493 L 13.327 1.936 C 13.783 1.481 13.783 0.797 13.327 0.342 C 12.871 -0.114 12.188 -0.114 11.732 0.342 Z" fill="currentColor" fill-rule="nonzero"></path>
  <path d="M 11.732 0.342 L 11.499 0.109 L 11.499 0.109 L 11.732 0.342 Z M 8.201 3.873 L 7.917 4.039 L 8.132 4.408 L 8.434 4.106 L 8.201 3.873 Z M 6.607 1.139 L 6.294 1.243 L 6.305 1.276 L 6.322 1.305 L 6.607 1.139 Z M 4.898 0.911 L 5.131 1.144 L 5.131 1.144 L 4.898 0.911 Z M 0.342 5.468 L 0.109 5.234 L 0.109 5.234 L 0.342 5.468 Z M 5.468 3.531 L 5.752 3.365 L 5.537 2.996 L 5.234 3.298 L 5.468 3.531 Z M 7.062 6.265 L 7.375 6.161 L 7.364 6.128 L 7.347 6.099 L 7.062 6.265 Z M 8.771 6.493 L 8.538 6.26 L 8.538 6.26 L 8.771 6.493 Z M 13.327 1.936 L 13.56 2.17 L 13.56 2.17 L 13.327 1.936 Z M 11.732 0.342 L 11.499 0.109 L 7.968 3.64 L 8.201 3.873 L 8.434 4.106 L 11.966 0.575 L 11.732 0.342 Z M 8.201 3.873 L 8.486 3.707 L 6.891 0.973 L 6.607 1.139 L 6.322 1.305 L 7.917 4.039 L 8.201 3.873 Z M 6.607 1.139 L 6.919 1.035 C 6.758 0.551 6.285 0.24 5.809 0.24 L 5.809 0.57 L 5.809 0.899 C 6.017 0.899 6.227 1.043 6.294 1.243 L 6.607 1.139 Z M 5.809 0.57 L 5.809 0.24 C 5.402 0.24 4.968 0.374 4.665 0.678 L 4.898 0.911 L 5.131 1.144 C 5.283 0.992 5.533 0.899 5.809 0.899 L 5.809 0.57 Z M 4.898 0.911 L 4.665 0.678 L 0.109 5.234 L 0.342 5.468 L 0.575 5.701 L 5.131 1.144 L 4.898 0.911 Z M 0.342 5.468 L 0.109 5.234 C -0.476 5.819 -0.476 6.711 0.109 7.295 L 0.342 7.062 L 0.575 6.829 C 0.248 6.502 0.248 6.028 0.575 5.701 L 0.342 5.468 Z M 0.342 7.062 L 0.109 7.295 C 0.242 7.429 0.388 7.542 0.564 7.62 C 0.741 7.698 0.93 7.734 1.139 7.734 L 1.139 7.404 L 1.139 7.074 C 1.007 7.074 0.911 7.053 0.832 7.017 C 0.751 6.981 0.669 6.924 0.575 6.829 L 0.342 7.062 Z M 1.139 7.404 L 1.139 7.734 C 1.348 7.734 1.538 7.698 1.714 7.62 C 1.89 7.542 2.036 7.429 2.17 7.295 L 1.936 7.062 L 1.703 6.829 C 1.609 6.924 1.527 6.981 1.447 7.017 C 1.367 7.053 1.271 7.074 1.139 7.074 L 1.139 7.404 Z M 1.936 7.062 L 2.17 7.295 L 5.701 3.764 L 5.468 3.531 L 5.234 3.298 L 1.703 6.829 L 1.936 7.062 Z M 5.468 3.531 L 5.183 3.697 L 6.777 6.431 L 7.062 6.265 L 7.347 6.099 L 5.752 3.365 L 5.468 3.531 Z M 7.062 6.265 L 6.749 6.369 C 6.911 6.853 7.383 7.164 7.86 7.164 L 7.86 6.834 L 7.86 6.505 C 7.652 6.505 7.442 6.361 7.375 6.161 L 7.062 6.265 Z M 7.86 6.834 L 7.86 7.164 C 8.267 7.164 8.7 7.029 9.004 6.726 L 8.771 6.493 L 8.538 6.26 C 8.386 6.412 8.136 6.505 7.86 6.505 L 7.86 6.834 Z M 8.771 6.493 L 9.004 6.726 L 13.56 2.17 L 13.327 1.936 L 13.094 1.703 L 8.538 6.26 L 8.771 6.493 Z M 13.327 1.936 L 13.56 2.17 C 14.145 1.585 14.145 0.693 13.56 0.109 L 13.327 0.342 L 13.094 0.575 C 13.421 0.902 13.421 1.376 13.094 1.703 L 13.327 1.936 Z M 13.327 0.342 L 13.56 0.109 C 12.976 -0.476 12.084 -0.476 11.499 0.109 L 11.732 0.342 L 11.966 0.575 C 12.292 0.248 12.767 0.248 13.094 0.575 L 13.327 0.342 Z" fill="currentColor" fill-rule="nonzero"></path>
</svg>