<svg xmlns="http://www.w3.org/2000/svg" width="25.788" height="20.529" viewBox="0 0 25.788 20.529" fill="none">
  <path d="M 25.635 19.652 L 21.811 15.828 C 22.687 14.786 23.167 13.477 23.167 12.099 C 23.167 10.545 22.564 9.086 21.463 7.991 C 20.977 7.505 20.422 7.126 19.818 6.843 C 18.392 2.74 14.556 0 10.197 0 C 4.573 0 0 4.573 0 10.198 C 0 15.822 4.573 20.395 10.197 20.395 C 12.649 20.395 15.005 19.503 16.864 17.89 C 17.03 17.906 17.19 17.911 17.356 17.911 C 18.734 17.911 20.037 17.43 21.084 16.554 L 24.909 20.379 C 25.01 20.48 25.144 20.529 25.272 20.529 C 25.406 20.529 25.534 20.48 25.635 20.379 C 25.838 20.181 25.838 19.855 25.635 19.652 Z M 1.058 10.71 L 4.973 10.71 C 5.011 12.233 5.208 13.659 5.539 14.925 L 2.356 14.925 C 1.603 13.68 1.143 12.249 1.058 10.71 Z M 2.356 5.465 L 5.539 5.465 C 5.208 6.731 5.011 8.157 4.973 9.679 L 1.058 9.679 C 1.143 8.141 1.603 6.709 2.356 5.465 Z M 13.429 4.434 L 10.71 4.434 L 10.71 1.111 C 11.768 1.421 12.746 2.644 13.429 4.434 Z M 9.679 1.111 L 9.679 4.439 L 6.955 4.439 C 7.628 2.65 8.595 1.416 9.679 1.111 Z M 9.679 5.465 L 9.679 9.679 L 6.004 9.679 C 6.047 8.152 6.266 6.715 6.618 5.465 L 9.679 5.465 Z M 6.004 10.71 L 9.679 10.71 L 9.679 14.925 L 6.618 14.925 C 6.266 13.675 6.047 12.238 6.004 10.71 Z M 9.679 15.956 L 9.679 19.284 C 8.595 18.979 7.628 17.74 6.955 15.956 L 9.679 15.956 Z M 10.71 19.284 L 10.71 15.956 L 13.013 15.956 C 13.087 16.041 13.162 16.127 13.242 16.212 C 13.264 16.234 13.285 16.25 13.306 16.271 C 12.623 17.922 11.688 19.001 10.71 19.284 Z M 10.71 14.925 L 10.71 10.71 L 11.715 10.71 C 11.602 11.159 11.544 11.624 11.544 12.099 C 11.544 13.103 11.8 14.07 12.275 14.925 L 10.71 14.925 Z M 12.072 9.679 L 10.71 9.679 L 10.71 5.465 L 13.771 5.465 C 13.931 6.02 14.06 6.618 14.161 7.243 C 13.835 7.457 13.525 7.708 13.242 7.991 C 12.751 8.488 12.361 9.06 12.072 9.679 Z M 15.123 6.731 C 15.043 6.293 14.946 5.871 14.84 5.465 L 18.045 5.465 C 18.226 5.769 18.386 6.084 18.536 6.41 C 18.151 6.33 17.756 6.287 17.356 6.287 C 16.576 6.287 15.822 6.442 15.123 6.731 Z M 17.323 4.434 L 14.535 4.434 C 14.113 3.205 13.557 2.19 12.911 1.442 C 14.653 1.976 16.186 3.023 17.323 4.434 Z M 7.484 1.437 C 6.832 2.195 6.271 3.21 5.849 4.434 L 3.072 4.434 C 4.204 3.039 5.732 1.982 7.484 1.437 Z M 3.077 15.956 L 5.855 15.956 C 6.277 17.179 6.838 18.194 7.489 18.953 C 5.732 18.408 4.204 17.35 3.077 15.956 Z M 12.922 18.937 C 13.376 18.408 13.782 17.74 14.14 16.944 C 14.578 17.233 15.048 17.457 15.545 17.623 C 14.738 18.2 13.857 18.643 12.922 18.937 Z M 13.974 15.481 C 13.071 14.578 12.575 13.376 12.575 12.099 C 12.575 10.822 13.071 9.621 13.974 8.718 C 14.877 7.815 16.079 7.318 17.356 7.318 C 18.632 7.318 19.834 7.815 20.737 8.718 C 21.64 9.621 22.136 10.822 22.136 12.099 C 22.136 13.376 21.64 14.578 20.737 15.481 C 19.834 16.383 18.632 16.88 17.356 16.88 C 16.079 16.88 14.877 16.383 13.974 15.481 Z" fill="currentColor" fill-rule="nonzero"></path>
</svg>