<svg xmlns="http://www.w3.org/2000/svg" width="19.724" height="19.724" viewBox="0 0 19.724 19.724" fill="none">
  <path d="M 18.159 5.361 C 19.022 5.361 19.724 4.659 19.724 3.796 L 19.724 1.565 C 19.724 0.702 19.022 0 18.159 0 L 6.713 0 C 5.851 0 5.148 0.702 5.148 1.565 L 5.148 3.796 C 5.148 4.659 5.85 5.361 6.713 5.361 L 6.965 5.361 L 6.965 6.358 L 6.713 6.358 C 5.851 6.358 5.148 7.06 5.148 7.923 L 5.148 10.097 C 5.039 10.089 4.93 10.085 4.82 10.085 C 2.162 10.085 0 12.247 0 14.904 C 0 17.562 2.162 19.724 4.82 19.724 C 6.263 19.724 7.561 19.086 8.445 18.077 L 18.159 18.077 C 19.022 18.077 19.724 17.375 19.724 16.512 L 19.724 14.281 C 19.724 13.418 19.022 12.716 18.159 12.716 L 17.907 12.716 L 17.907 11.719 L 18.159 11.719 C 19.022 11.719 19.724 11.017 19.724 10.154 L 19.724 7.922 C 19.724 7.06 19.022 6.358 18.159 6.358 L 17.907 6.358 L 17.907 5.361 L 18.159 5.361 Z M 5.639 3.796 L 5.639 1.565 C 5.639 0.973 6.121 0.491 6.713 0.491 L 18.159 0.491 C 18.752 0.491 19.233 0.973 19.233 1.565 L 19.233 3.796 C 19.233 4.388 18.752 4.87 18.159 4.87 L 6.713 4.87 C 6.121 4.87 5.639 4.388 5.639 3.796 Z M 7.454 11.472 C 7.477 11.489 7.5 11.507 7.523 11.526 C 7.394 11.609 7.26 11.686 7.122 11.757 C 7.083 11.685 7.043 11.614 7.001 11.544 C 6.862 11.316 6.711 11.114 6.551 10.937 C 6.874 11.079 7.177 11.259 7.454 11.472 L 6.966 11.472 L 6.966 11.473 L 7.454 11.472 Z M 7.851 14.659 C 7.823 13.771 7.644 12.925 7.335 12.199 C 7.532 12.1 7.72 11.989 7.9 11.866 C 8.618 12.593 9.081 13.573 9.141 14.659 L 7.851 14.659 Z M 4.82 19.233 C 4.766 19.224 4.526 18.997 4.313 18.033 C 4.279 17.881 4.248 17.719 4.22 17.55 C 4.418 17.528 4.618 17.517 4.821 17.517 C 5.022 17.517 5.222 17.528 5.42 17.55 C 5.391 17.719 5.361 17.881 5.327 18.033 C 5.114 18.997 4.874 19.224 4.82 19.233 Z M 4.821 17.026 C 4.595 17.026 4.371 17.039 4.15 17.064 C 4.077 16.48 4.034 15.828 4.026 15.15 L 5.614 15.15 C 5.606 15.828 5.563 16.48 5.49 17.064 C 5.269 17.039 5.046 17.026 4.821 17.026 Z M 4.026 14.659 C 4.034 13.981 4.077 13.329 4.15 12.745 C 4.371 12.77 4.595 12.783 4.821 12.783 C 5.046 12.783 5.269 12.77 5.49 12.745 C 5.563 13.329 5.605 13.981 5.614 14.659 L 4.026 14.659 Z M 4.821 12.292 C 4.618 12.292 4.418 12.28 4.22 12.258 C 4.248 12.089 4.279 11.928 4.313 11.775 C 4.526 10.81 4.767 10.584 4.819 10.575 L 4.819 10.575 C 4.873 10.584 5.114 10.809 5.327 11.775 C 5.36 11.927 5.391 12.089 5.419 12.258 C 5.222 12.28 5.022 12.292 4.821 12.292 Z M 5.795 11.618 C 5.715 11.267 5.625 10.978 5.526 10.749 C 5.916 10.944 6.277 11.301 6.581 11.8 C 6.613 11.851 6.642 11.903 6.672 11.956 C 6.426 12.05 6.169 12.125 5.905 12.18 C 5.871 11.983 5.835 11.794 5.795 11.618 Z M 2.518 11.756 C 2.38 11.686 2.246 11.609 2.118 11.525 C 2.412 11.289 2.739 11.091 3.089 10.937 C 2.929 11.114 2.778 11.317 2.639 11.544 C 2.597 11.614 2.557 11.684 2.518 11.756 Z M 3.058 11.8 C 3.362 11.301 3.724 10.944 4.114 10.749 C 4.014 10.978 3.924 11.267 3.845 11.618 C 3.804 11.794 3.768 11.983 3.735 12.18 C 3.471 12.125 3.214 12.049 2.968 11.955 C 2.998 11.902 3.027 11.851 3.058 11.8 Z M 3.665 12.667 C 3.588 13.276 3.543 13.953 3.535 14.659 L 2.28 14.659 C 2.307 13.839 2.471 13.062 2.753 12.398 C 3.045 12.513 3.35 12.603 3.665 12.667 Z M 3.535 15.15 C 3.543 15.855 3.588 16.533 3.665 17.142 C 3.351 17.206 3.045 17.296 2.754 17.411 C 2.471 16.747 2.307 15.97 2.28 15.15 L 3.535 15.15 Z M 3.735 17.629 C 3.768 17.826 3.804 18.015 3.845 18.191 C 3.924 18.542 4.014 18.83 4.114 19.06 C 3.724 18.864 3.362 18.508 3.058 18.009 C 3.027 17.958 2.997 17.906 2.968 17.854 C 3.214 17.759 3.471 17.684 3.735 17.629 Z M 2.639 18.264 C 2.778 18.492 2.929 18.695 3.089 18.871 C 2.739 18.718 2.413 18.519 2.118 18.283 C 2.247 18.2 2.38 18.123 2.518 18.052 C 2.557 18.125 2.597 18.195 2.639 18.264 Z M 7.122 18.052 C 7.26 18.122 7.394 18.199 7.523 18.283 C 7.228 18.519 6.901 18.718 6.551 18.871 C 6.711 18.695 6.862 18.492 7.001 18.264 C 7.043 18.195 7.083 18.124 7.122 18.052 Z M 6.581 18.008 C 6.277 18.507 5.916 18.864 5.526 19.06 C 5.625 18.83 5.715 18.541 5.795 18.19 C 5.835 18.014 5.871 17.826 5.904 17.628 C 6.169 17.683 6.425 17.758 6.671 17.853 C 6.642 17.906 6.613 17.958 6.581 18.008 Z M 5.975 17.142 C 6.052 16.532 6.097 15.855 6.105 15.15 L 7.36 15.15 C 7.332 15.97 7.168 16.746 6.886 17.41 C 6.595 17.296 6.289 17.205 5.975 17.142 Z M 6.105 14.659 C 6.097 13.953 6.052 13.276 5.975 12.667 C 6.289 12.603 6.595 12.513 6.886 12.399 C 7.168 13.062 7.332 13.839 7.36 14.659 L 6.105 14.659 Z M 1.741 11.865 C 1.92 11.988 2.109 12.099 2.305 12.199 C 1.995 12.924 1.816 13.77 1.788 14.659 L 0.498 14.659 C 0.559 13.573 1.022 12.593 1.741 11.865 Z M 0.498 15.15 L 1.788 15.15 C 1.816 16.039 1.995 16.885 2.305 17.61 C 2.109 17.71 1.92 17.821 1.741 17.944 C 1.022 17.216 0.559 16.236 0.498 15.15 Z M 7.9 17.943 C 7.72 17.82 7.531 17.709 7.335 17.61 C 7.644 16.884 7.823 16.038 7.851 15.15 L 9.141 15.15 C 9.081 16.236 8.618 17.216 7.9 17.943 Z M 19.233 14.281 L 19.233 16.512 C 19.233 17.104 18.752 17.586 18.159 17.586 L 8.823 17.586 C 9.339 16.819 9.64 15.896 9.64 14.904 C 9.64 14.307 9.531 13.735 9.331 13.207 L 18.16 13.207 C 18.752 13.207 19.233 13.689 19.233 14.281 Z M 17.416 12.716 L 9.114 12.716 C 8.929 12.355 8.7 12.02 8.434 11.719 L 17.416 11.719 L 17.416 12.716 Z M 19.233 7.923 L 19.233 10.154 C 19.233 10.746 18.752 11.228 18.159 11.228 L 7.933 11.228 C 7.29 10.683 6.504 10.304 5.639 10.155 L 5.639 10.154 L 5.639 7.923 C 5.639 7.331 6.121 6.849 6.713 6.849 L 18.159 6.849 C 18.752 6.849 19.233 7.331 19.233 7.923 Z M 17.416 6.358 L 7.456 6.358 L 7.456 5.361 L 17.416 5.361 L 17.416 6.358 Z M 17.344 2.68 C 17.344 2.816 17.234 2.926 17.098 2.926 L 11.183 2.926 C 11.048 2.926 10.938 2.816 10.938 2.68 C 10.938 2.545 11.048 2.435 11.183 2.435 L 17.099 2.435 C 17.234 2.435 17.344 2.545 17.344 2.68 Z M 9.579 2.68 C 9.579 2.816 9.469 2.926 9.333 2.926 L 7.774 2.926 C 7.639 2.926 7.529 2.816 7.529 2.68 C 7.529 2.545 7.639 2.435 7.774 2.435 L 9.333 2.435 C 9.469 2.435 9.579 2.545 9.579 2.68 Z M 7.529 9.038 C 7.529 8.903 7.639 8.793 7.774 8.793 L 9.333 8.793 C 9.469 8.793 9.579 8.903 9.579 9.038 C 9.579 9.174 9.469 9.284 9.333 9.284 L 7.774 9.284 C 7.639 9.284 7.529 9.174 7.529 9.038 Z M 10.938 9.038 C 10.938 8.903 11.048 8.793 11.183 8.793 L 17.099 8.793 C 17.234 8.793 17.344 8.903 17.344 9.038 C 17.344 9.174 17.234 9.284 17.099 9.284 L 11.183 9.284 C 11.048 9.284 10.938 9.174 10.938 9.038 Z M 10.938 15.396 C 10.938 15.261 11.048 15.151 11.183 15.151 L 17.099 15.151 C 17.234 15.151 17.344 15.261 17.344 15.396 C 17.344 15.532 17.234 15.642 17.099 15.642 L 11.183 15.642 C 11.048 15.642 10.938 15.532 10.938 15.396 Z" fill="currentColor" fill-rule="nonzero"></path>
</svg>