<svg width="3147" height="1416" viewBox="0 0 3147 1416" fill="none" xmlns="http://www.w3.org/2000/svg">
<path d="M3146.8 0H0V1415.58H3146.8V0Z" fill="#F9F9F9"></path>
<path d="M953.21 489.055H810.623C730.126 489.055 664.969 554.285 664.969 634.709V780.802C664.969 861.299 730.126 926.53 810.623 926.53H820.119C897.11 926.53 959.492 864.148 959.492 787.157C959.492 864.148 1021.87 926.53 1098.86 926.53V634.709C1098.86 554.285 1033.63 489.055 953.21 489.055ZM959.492 785.404H808.797V634.636H959.492V785.404Z" fill="url(#paint0_linear_41_2)"></path>
<path d="M1196.5 828.905L1304.59 586.697H1359.54L1467.63 828.905H1423.52L1395.69 766.004H1267.71L1239.88 828.905H1196.5ZM1283.25 730.937H1380.14L1347.25 657.19L1333.15 622.849H1330.25L1316.15 657.19L1283.25 730.937Z" fill="#02021E"></path>
<path d="M1485.7 828.905V586.697H1524.74V828.905H1485.7Z" fill="#02021E"></path>
<path d="M1574.63 828.905V681.77H1547.52V649.239H1574.99C1579.33 609.833 1609.33 586.697 1660.3 586.697H1678.01V615.615H1654.16C1625.6 615.615 1610.78 623.216 1612.94 649.239H1678.01V681.77H1613.67V828.905H1574.63Z" fill="#02021E"></path>
<path d="M1699.68 828.908V649.242H1735.46V697.684H1737.99C1743.42 668.757 1762.94 645.629 1799.82 645.629C1840.67 645.629 1858.38 674.906 1858.38 708.889V732.384H1819.7V716.481C1819.7 690.809 1808.85 678.886 1782.1 678.886C1751.38 678.886 1738.72 695.873 1738.72 728.045V828.908H1699.68Z" fill="#02021E"></path>
<path d="M1875.76 739.25C1875.76 683.224 1914.08 645.629 1972.64 645.629C2028.32 645.629 2066.27 676.358 2066.27 730.94C2066.27 737.448 2065.91 742.512 2064.83 747.927H1912.27C1913.72 782.636 1930.71 801.066 1972.28 801.066C2009.88 801.066 2025.42 788.785 2025.42 767.451V764.564H2064.46V767.81C2064.46 806.139 2026.86 832.529 1973.37 832.529C1914.44 832.529 1875.76 799.264 1875.76 739.25ZM1912.64 726.243H2029.4V725.517C2029.4 692.26 2010.24 676.358 1971.92 676.358C1932.15 676.358 1914.8 694.071 1912.64 726.243Z" fill="#02021E"></path>
<path d="M2086.49 739.247C2086.49 683.221 2117.58 645.626 2172.17 645.626C2214.82 645.626 2239.04 667.678 2246.28 698.039H2248.45V586.697H2287.48V828.905H2251.7V777.209H2249.17C2241.58 813.002 2215.19 832.526 2174.7 832.526C2117.94 832.526 2086.49 794.564 2086.49 739.247ZM2186.63 796.733C2224.95 796.733 2248.45 778.653 2248.45 741.058V738.171C2248.45 699.85 2226.04 681.052 2185.9 681.052C2148.31 681.052 2125.9 695.87 2125.9 739.247C2125.9 782.274 2147.95 796.733 2186.63 796.733Z" fill="#02021E"></path>
<path d="M2336.33 660.219C2336.33 645.886 2346.98 636.97 2367.71 634.841L2409.37 630.574V626.895C2409.37 614.299 2403.75 610.817 2388.25 610.817C2373.53 610.817 2367.52 614.692 2367.52 625.737V626.503H2338.26V625.924C2338.26 601.9 2358.41 585.243 2390.38 585.243C2422.73 585.243 2438.04 601.9 2438.04 627.287V684.242H2410.92V661.965H2409.37C2404.91 677.072 2391.35 686.185 2369.84 686.185C2348.92 686.185 2336.33 676.493 2336.33 660.219ZM2378.18 665.643C2397.93 665.643 2408.59 660.993 2409.37 647.24L2375.66 651.115C2368.68 651.694 2365.58 653.636 2365.58 658.286C2365.58 663.514 2369.65 665.643 2378.18 665.643Z" fill="#02021E"></path>
<path d="M2452.77 577.298V554.441H2481.83V577.298H2452.77ZM2452.77 684.243V587.176H2481.83V684.243H2452.77Z" fill="#02021E"></path>
<defs>
<linearGradient id="paint0_linear_41_2" x1="1061.73" y1="524.158" x2="643.954" y2="764.503" gradientUnits="userSpaceOnUse">
<stop stop-color="#A7A7FC"></stop>
<stop offset="0.709771" stop-color="#FF8431"></stop>
</linearGradient>
</defs>
</svg>