<svg width="3147" height="1416" viewBox="0 0 3147 1416" fill="none" xmlns="http://www.w3.org/2000/svg" xmlns:xlink="http://www.w3.org/1999/xlink">
<rect width="3146.8" height="1415.58" fill="url(#pattern0_41_3)"></rect>
<path d="M953.217 489.054H810.631C730.133 489.054 664.977 554.284 664.977 634.708V780.801C664.977 861.298 730.133 926.529 810.631 926.529H820.127C897.118 926.529 959.499 864.147 959.499 787.156C959.499 864.147 1021.88 926.529 1098.87 926.529V634.708C1098.87 554.284 1033.64 489.054 953.217 489.054ZM959.499 785.403H808.805V634.635H959.499V785.403Z" fill="white"></path>
<path d="M1196.5 828.904L1304.59 586.696H1359.54L1467.63 828.904H1423.52L1395.69 766.003H1267.71L1239.88 828.904H1196.5ZM1283.25 730.936H1380.14L1347.25 657.189L1333.15 622.848H1330.25L1316.15 657.189L1283.25 730.936Z" fill="white"></path>
<path d="M1485.7 828.904V586.696H1524.75V828.904H1485.7Z" fill="white"></path>
<path d="M1574.63 828.904V681.769H1547.52V649.238H1574.99C1579.33 609.832 1609.33 586.696 1660.3 586.696H1678.01V615.614H1654.16C1625.6 615.614 1610.78 623.215 1612.94 649.238H1678.01V681.769H1613.67V828.904H1574.63Z" fill="white"></path>
<path d="M1699.69 828.907V649.241H1735.47V697.682H1738C1743.42 668.756 1762.95 645.628 1799.82 645.628C1840.67 645.628 1858.39 674.905 1858.39 708.888V732.383H1819.71V716.48C1819.71 690.808 1808.86 678.885 1782.1 678.885C1751.38 678.885 1738.73 695.872 1738.73 728.044V828.907H1699.69Z" fill="white"></path>
<path d="M1875.77 739.249C1875.77 683.223 1914.09 645.628 1972.65 645.628C2028.32 645.628 2066.28 676.357 2066.28 730.939C2066.28 737.447 2065.92 742.511 2064.83 747.926H1912.28C1913.73 782.635 1930.72 801.065 1972.29 801.065C2009.89 801.065 2025.43 788.784 2025.43 767.45V764.563H2064.47V767.809C2064.47 806.138 2026.87 832.528 1973.37 832.528C1914.45 832.528 1875.77 799.263 1875.77 739.249ZM1912.64 726.242H2029.41V725.516C2029.41 692.259 2010.24 676.357 1971.92 676.357C1932.16 676.357 1914.81 694.07 1912.64 726.242Z" fill="white"></path>
<path d="M2086.49 739.246C2086.49 683.22 2117.58 645.625 2172.17 645.625C2214.82 645.625 2239.04 667.677 2246.28 698.038H2248.45V586.696H2287.48V828.904H2251.7V777.208H2249.17C2241.58 813.001 2215.19 832.525 2174.7 832.525C2117.94 832.525 2086.49 794.563 2086.49 739.246ZM2186.63 796.732C2224.95 796.732 2248.45 778.652 2248.45 741.057V738.17C2248.45 699.849 2226.04 681.051 2185.9 681.051C2148.31 681.051 2125.9 695.869 2125.9 739.246C2125.9 782.273 2147.95 796.732 2186.63 796.732Z" fill="white"></path>
<path d="M2336.34 660.218C2336.34 645.886 2346.99 636.969 2367.72 634.84L2409.38 630.573V626.894C2409.38 614.299 2403.76 610.816 2388.26 610.816C2373.53 610.816 2367.53 614.691 2367.53 625.737V626.502H2338.27V625.923C2338.27 601.899 2358.42 585.242 2390.39 585.242C2422.74 585.242 2438.04 601.899 2438.04 627.287V684.242H2410.93V661.964H2409.38C2404.92 677.071 2391.36 686.184 2369.85 686.184C2348.93 686.184 2336.34 676.492 2336.34 660.218ZM2378.18 665.643C2397.94 665.643 2408.59 660.993 2409.38 647.24L2375.66 651.114C2368.69 651.693 2365.59 653.635 2365.59 658.285C2365.59 663.514 2369.66 665.643 2378.18 665.643Z" fill="white"></path>
<path d="M2452.77 577.297V554.44H2481.83V577.297H2452.77ZM2452.77 684.242V587.176H2481.83V684.242H2452.77Z" fill="white"></path>
<defs>
<pattern id="pattern0_41_3" patternContentUnits="objectBoundingBox" width="1" height="1">
<use xlink:href="#image0_41_3" transform="scale(0.000794281 0.00157729)"></use>
</pattern>
<image id="image0_41_3" width="1259" height="634" preserveAspectRatio="none"></image>
</defs>
</svg>