<svg width="1817" height="438" viewBox="0 0 1817 438" fill="none" xmlns="http://www.w3.org/2000/svg">
<path d="M288.241 0H145.654C65.1568 0 0 65.2299 0 145.654V291.747C0 372.244 65.1568 437.475 145.654 437.475H155.151C232.142 437.475 294.523 375.093 294.523 298.103C294.523 375.093 356.904 437.475 433.895 437.475V145.654C433.895 65.2299 368.665 0 288.241 0ZM294.523 296.35H143.828V145.581H294.523V296.35Z" fill="white"></path>
<path d="M531.523 339.851L639.612 97.6426H694.561L802.65 339.851H758.546L730.713 276.95H602.734L574.901 339.851H531.523ZM618.278 241.883H715.161L682.271 168.136L668.171 133.794H665.276L651.176 168.136L618.278 241.883Z" fill="white"></path>
<path d="M820.727 339.85V97.6423H859.773V339.85H820.727Z" fill="white"></path>
<path d="M909.655 339.85V192.715H882.539V160.184H910.014C914.352 120.778 944.355 97.6423 995.325 97.6423H1013.04V126.56H989.184C960.625 126.56 945.799 134.161 947.968 160.184H1013.04V192.715H948.694V339.85H909.655Z" fill="white"></path>
<path d="M1034.71 339.853V160.187H1070.5V208.629H1073.02C1078.45 179.702 1097.97 156.574 1134.85 156.574C1175.7 156.574 1193.41 185.851 1193.41 219.834V243.329H1154.73V227.426C1154.73 201.754 1143.88 189.831 1117.13 189.831C1086.41 189.831 1073.75 206.818 1073.75 238.99V339.853H1034.71Z" fill="white"></path>
<path d="M1210.79 250.196C1210.79 194.17 1249.11 156.574 1307.67 156.574C1363.35 156.574 1401.3 187.303 1401.3 241.885C1401.3 248.393 1400.94 253.458 1399.86 258.873H1247.3C1248.75 293.581 1265.74 312.012 1307.31 312.012C1344.91 312.012 1360.45 299.73 1360.45 278.396V275.509H1399.49V278.755C1399.49 317.084 1361.9 343.474 1308.4 343.474C1249.47 343.474 1210.79 310.209 1210.79 250.196ZM1247.67 237.188H1364.43V236.462C1364.43 203.206 1345.27 187.303 1306.95 187.303C1267.18 187.303 1249.84 205.016 1247.67 237.188Z" fill="white"></path>
<path d="M1421.52 250.193C1421.52 194.167 1452.6 156.571 1507.19 156.571C1549.85 156.571 1574.07 178.623 1581.3 208.985H1583.47V97.6423H1622.51V339.85H1586.72V288.155H1584.19C1576.6 323.948 1550.21 343.471 1509.72 343.471C1452.96 343.471 1421.52 305.509 1421.52 250.193ZM1521.65 307.678C1559.97 307.678 1583.47 289.598 1583.47 252.003V249.116C1583.47 210.795 1561.06 191.997 1520.93 191.997C1483.33 191.997 1460.92 206.815 1460.92 250.193C1460.92 293.219 1482.97 307.678 1521.65 307.678Z" fill="white"></path>
<path d="M1671.36 171.164C1671.36 156.832 1682.01 147.915 1702.74 145.787L1744.4 141.52V137.841C1744.4 125.245 1738.78 121.763 1723.28 121.763C1708.56 121.763 1702.55 125.637 1702.55 136.683V137.449H1673.29V136.87C1673.29 112.846 1693.44 96.1887 1725.41 96.1887C1757.76 96.1887 1773.07 112.846 1773.07 138.233V195.188H1745.95V172.91H1744.4C1739.94 188.018 1726.38 197.13 1704.87 197.13C1683.95 197.13 1671.36 187.439 1671.36 171.164ZM1713.21 176.589C1732.96 176.589 1743.62 171.939 1744.4 158.186L1710.69 162.061C1703.71 162.64 1700.61 164.582 1700.61 169.232C1700.61 174.46 1704.68 176.589 1713.21 176.589Z" fill="white"></path>
<path d="M1787.8 88.2433V65.3865H1816.85V88.2433H1787.8ZM1787.8 195.189V98.1218H1816.85V195.189H1787.8Z" fill="white"></path>
</svg>